<svg xmlns="http://www.w3.org/2000/svg" xmlns:xlink="https://www.w3.org/1999/xlink" width="661.942" height="560.517" viewBox="0 0 661.942 560.517">
  <defs>
    <clipPath id="clip-path">
      <path id="Trazado_131" data-name="Trazado 131" d="M793.4,921.617c-16.3,47.167-35.767,93.743-103.477,111.729l-292.658-3.109c-65.947-31.148-101.985-92.649-107.98-159a226.212,226.212,0,0,1,3.913-66.46q1.8-8.717,4.3-17.327c15.119-52.126,47.119-101.268,94.721-128.988,30.586-17.811,69.792-11.932,102.276-2.789,29.288,8.242,57.9,19.787,88.135,23.264,24.087,2.76,48.591.31,72.755,1.259a177.017,177.017,0,0,1,25.763,2.712c36.5,6.857,68.862,29.24,91.07,59.167a162.692,162.692,0,0,1,19.1,33.2C810.876,821.191,809.7,874.45,793.4,921.617Z" transform="translate(-288.389 -646.925)" fill="none"/>
    </clipPath>
  </defs>
  <g id="Grupo_117" data-name="Grupo 117" transform="translate(-155.679 -288.166)">
    <g id="Grupo_85" data-name="Grupo 85" transform="translate(744.71 701.05)">
      <path id="Trazado_124" data-name="Trazado 124" d="M1723.911,1483.351c-.064,0-.125.007-.188.008l.547-9.465h-48.151l2.32,40.156a14.228,14.228,0,0,0,14.2,13.407h15.1a14.228,14.228,0,0,0,14.2-13.407l.536-9.266c.468.044.943.072,1.426.072,7.029,0,12.749-4.823,12.749-10.752S1730.94,1483.351,1723.911,1483.351Zm0,17.049a10.832,10.832,0,0,1-1.168-.07l.722-12.508c.149-.006.3-.017.446-.017,4.574,0,8.295,2.825,8.295,6.3S1728.485,1500.4,1723.911,1500.4Z" transform="translate(-1676.119 -1425.251)" fill="#ee6f57"/>
      <g id="Grupo_84" data-name="Grupo 84" transform="translate(12.584)">
        <path id="Trazado_125" data-name="Trazado 125" d="M1724.968,1393.338a18.918,18.918,0,0,1-12.213-7.257,19.371,19.371,0,0,1-3.395-6.674c-.192-.607-.3-1.229-.44-1.849-.084-.625-.206-1.25-.239-1.88a20.359,20.359,0,0,1,.02-3.778,20.933,20.933,0,0,1,2.052-7.222,19.24,19.24,0,0,1,1.982-3.213,20.03,20.03,0,0,1,2.5-2.733c.849-.79,1.666-1.471,2.364-2.155a12.009,12.009,0,0,0,.969-1.016,6.8,6.8,0,0,0,.721-1.022,4.905,4.905,0,0,0,.672-2.314,2.975,2.975,0,0,0-.671-2.123l1.213-1.768a4.625,4.625,0,0,1,1.657,1.46,6.08,6.08,0,0,1,.876,2,7.937,7.937,0,0,1-.192,4.184c-.96,2.734-2.785,4.523-4.146,6.12a18.708,18.708,0,0,0-1.76,2.335c-.269.391-.486.817-.728,1.225-.2.432-.436.845-.611,1.29a18.786,18.786,0,0,0-1.457,5.5,17.438,17.438,0,0,0,2.446,10.95,20.63,20.63,0,0,0,8.945,7.872Z" transform="translate(-1708.602 -1348.335)" fill="#e5ecff"/>
        <path id="Trazado_126" data-name="Trazado 126" d="M1754.571,1392.47a23.192,23.192,0,0,0,4.7-5.6,18.692,18.692,0,0,0,2.4-6.388,19.683,19.683,0,0,0-.106-6.805,25.362,25.362,0,0,0-2.421-6.895l1.562-1.469a14.414,14.414,0,0,1,5.489,6.985,16.857,16.857,0,0,1,.863,9.142,17.247,17.247,0,0,1-4.013,8.246,14.925,14.925,0,0,1-7.512,4.7Z" transform="translate(-1736.762 -1358.736)" fill="#e5ecff"/>
      </g>
    </g>
    <g id="Grupo_89" data-name="Grupo 89" transform="translate(174.591 429.318)">
      <path id="Trazado_127" data-name="Trazado 127" d="M557.1,1051.049c-61.49-11.906-104.921-47.734-125.082-103.234-32.069-88.283,2.292-218.423,94.223-247.016,36.407-11.324,81.117,8.954,118.519,8.678,52.534-.388,99.777-32.626,151.965-28.516,67.943,5.351,117.607,67.944,130.346,131.451a187.636,187.636,0,0,1,1.38,66.3c-3.8,23.845-11.551,47.207-23.311,67.867-10.133,17.8-33.559,41.369-53.486,46.114Z" transform="translate(-336.68 -667.553)" fill="none" stroke="#ee2a7b" stroke-miterlimit="10" stroke-width="3.82"/>
      <path id="Trazado_128" data-name="Trazado 128" d="M589.5,1084.15c60.77-15,107.2-60.321,123.214-112.171,25.467-82.478-18.87-198.52-113.242-218.288-19.17-4.015-39.372-3-58.82-.752-31.769,3.671-64.357,8.286-96.372,7.264-31.135-.994-61.328-10.146-92.706-9.44-103.7,2.335-165.811,101.37-142.01,192.058a176.116,176.116,0,0,0,28.53,60.149c11.513,15.5,36.8,35.351,57.142,38.315Z" transform="translate(-204.496 -710.512)" fill="none" stroke="#ee2a7b" stroke-miterlimit="10" stroke-width="3.75"/>
      <g id="Grupo_88" data-name="Grupo 88" transform="translate(32.501)">
        <g id="Grupo_87" data-name="Grupo 87" clip-path="url(#clip-path)">
          <g id="Grupo_86" data-name="Grupo 86" transform="translate(-89.52 -1.468)">
            <path id="Trazado_129" data-name="Trazado 129" d="M793.4,921.617c-16.3,47.167-35.767,93.743-103.477,111.729l-292.658-3.109c-65.947-31.148-101.985-92.649-107.98-159a226.212,226.212,0,0,1,3.913-66.46q1.8-8.717,4.3-17.327c15.119-52.126,47.119-101.268,94.721-128.988,30.586-17.811,69.792-11.932,102.276-2.789,29.288,8.242,57.9,19.787,88.135,23.264,24.087,2.76,48.591.31,72.755,1.259a177.017,177.017,0,0,1,25.763,2.712c36.5,6.857,68.862,29.24,91.07,59.167a162.692,162.692,0,0,1,19.1,33.2C810.876,821.191,809.7,874.45,793.4,921.617Z" transform="translate(-198.869 -645.457)" fill="#faeaf1"/>
            <path id="Trazado_130" data-name="Trazado 130" d="M95.142,990.718c-1.333-16.2,7.739-33.675,23.677-45.6,14.516-10.857,32.426-16.392,49.618-20.755,95.527-24.247,196.429-21.354,294.007-18.557,87.2,2.5,177.38,5.085,263.707-11.635,12.289-2.379,25.207-5.275,36.2-12.095,11.81-7.327,19.286-18.8,19.512-29.951.424-20.9-22.222-35.231-35.759-41.911-51.406-25.367-114.658-34.908-199.052-30.036a953.553,953.553,0,0,0-189.351,30.4c-13.963,3.709-28.147,7.809-41.864,11.774-49.108,14.2-99.883,28.875-151.673,28.875h-.778c-14.058-.04-32.107-2.887-38.259-16.223-4.341-9.414-.69-20.138,3.137-27.476,12.792-24.528,36.992-38.823,55.042-46.5,20.276-8.618,42.309-13.3,63.616-17.834q3.795-.807,7.583-1.619a1436.2,1436.2,0,0,0,141.411-38.122c21.94-7.139,33.2-16.421,34.423-28.377,1.085-10.6-6.7-19.891-14.894-24.391-9.819-5.392-21.42-6.091-30.43-6.1h-.127a167.471,167.471,0,0,0-78.044,19.3c-8.867,4.692-17.424,10.272-25.7,15.669-10.954,7.144-22.282,14.532-34.492,19.965-23.612,10.507-51.564,14.379-83.084,11.5-24.334-2.219-42.884-8.194-56.708-18.267-8.34-6.077-15.3-13.917-22.035-21.5-8.182-9.213-16.642-18.74-27.513-24.929l.719-1.263C69.113,651.377,77.654,661,85.914,670.3c6.681,7.524,13.59,15.3,21.8,21.289,13.605,9.914,31.918,15.8,55.984,17.994,31.265,2.851,58.977-.98,82.361-11.384,12.1-5.386,23.383-12.742,34.289-19.855,8.3-5.415,16.886-11.014,25.813-15.736a168.935,168.935,0,0,1,78.723-19.469h.128c9.183.007,21.02.727,31.128,6.278,8.615,4.73,16.792,14.546,15.64,25.812-1.288,12.589-12.874,22.275-35.419,29.611A1437.726,1437.726,0,0,1,254.812,743q-3.788.816-7.586,1.62c-21.24,4.516-43.2,9.187-63.35,17.751-17.831,7.58-41.729,21.684-54.322,45.83-3.677,7.05-7.2,17.318-3.106,26.2,5.831,12.643,23.308,15.341,36.944,15.38h.774c51.587,0,102.256-14.648,151.27-28.817,13.724-3.968,27.915-8.07,41.894-11.782a954.991,954.991,0,0,1,189.641-30.444c84.658-4.891,148.136,4.7,199.778,30.183,13.846,6.833,37.008,21.534,36.568,43.244-.236,11.635-7.976,23.573-20.2,31.156-11.2,6.95-24.268,9.88-36.69,12.286-86.484,16.75-176.742,14.164-264.025,11.66-97.477-2.793-198.277-5.684-293.608,18.512C151.748,930.1,134,935.58,119.689,946.284,104.148,957.909,95.3,974.89,96.59,990.6Z" transform="translate(-57.315 -643.136)" fill="#fff"/>
          </g>
        </g>
      </g>
    </g>
    <path id="Trazado_132" data-name="Trazado 132" d="M1227.655,1541.8c19.759,5.066,46.907,9.609,38.254,26.5l-49.225-.048Z" transform="translate(-649.963 -765.798)" fill="#e28b6d"/>
    <g id="Grupo_90" data-name="Grupo 90" transform="translate(296.261 659.613)">
      <rect id="Rectángulo_75" data-name="Rectángulo 75" width="106.495" height="156.128" rx="53.247" transform="translate(0)" fill="#102048"/>
      <path id="Trazado_133" data-name="Trazado 133" d="M566.281,1277.659c-1.789.467-3,2.1-3.8,3.768a24.4,24.4,0,0,0-1.75,5.418,73.063,73.063,0,0,0-1.4,11.432,207.67,207.67,0,0,0,.239,23.146c.439,7.715,1.146,15.418,2.078,23.094q.675,5.76,1.56,11.493c.568,3.824,1.2,7.64,1.982,11.428l-.554.125c-.926-3.77-1.719-7.571-2.43-11.386q-1.018-5.732-1.817-11.5-1.558-11.537-2.256-23.174a189.087,189.087,0,0,1-.026-23.306,71.8,71.8,0,0,1,1.671-11.578,25.229,25.229,0,0,1,2.015-5.545,10.409,10.409,0,0,1,1.736-2.445,5.381,5.381,0,0,1,2.629-1.524Z" transform="translate(-542.567 -1263.263)" fill="#fff" opacity="0.8"/>
    </g>
    <path id="Trazado_134" data-name="Trazado 134" d="M626.791,1305.093a647.891,647.891,0,0,0,21.981,128.328H700.6Z" transform="translate(-288.599 -620.796)" fill="#1f3c88"/>
    <path id="Trazado_135" data-name="Trazado 135" d="M668.462,969.282c-13.024-7.085-16.6-24.641-7.085-36.041q1.373-1.646,3.057-3.328c14.531-14.475,5.478-28.957,3.446-62.26-2.029-33.27,35.035-42.355,35.107-42.373,1.748-.427,5.131-5.415,6.56-6.655,16.729-14.51,40.726-13.438,59.063-2.4,8.724,5.254,17.5,13.345,22.226,22.625,7.489,14.72,8.844,34.116,21.456,45.579,17.978,16.341,37.921,30.213,37.116,56.569-.286,9.362-2.629,19.255-8.335,26.759-4.973,6.54-12.547,10.928-19.384,15.159-11.112,6.877-22.843,12.958-35.25,17.042-12.012,3.954-24.157,7.509-36.336,10.9q-1.727.48-3.455.954Z" transform="translate(-306.494 -316.182)" fill="#6f3428"/>
    <path id="Trazado_136" data-name="Trazado 136" d="M906.941,1183.217c43.531-14.946,67.175,33.778,99.687,128.847l31.281,8.44-3.635,33.856-11.413,2.379-93.193.392Z" transform="translate(-460.217 -544.505)" fill="#ee2a7b"/>
    <rect id="Rectángulo_76" data-name="Rectángulo 76" width="661.942" height="22.814" transform="translate(155.679 801.406)" fill="#e5ecff"/>
    <path id="Trazado_137" data-name="Trazado 137" d="M736.905,1169.14l97.349,24.364,40.9,122.557-136.635,4.163-9.038-90.616Z" transform="translate(-351.507 -537.512)" fill="#ee2a7b"/>
    <path id="Trazado_138" data-name="Trazado 138" d="M731.063,1305.093c23.918,24.078,18.628,59.362,39.061,62.864,13.526,2.318,51.969,7.811,70.308,15.452,3.709,1.545,13.949,9.161,12.362,15.916-1.022,4.354-14.667.866-14.667.866l-102.152-10.252-21.633-50.053Z" transform="translate(-342.232 -620.796)" fill="#1f3c88" opacity="0.3"/>
    <path id="Trazado_139" data-name="Trazado 139" d="M974.4,1526.931c.7-1.1,15.341-4,17-3.773,5.447.743,8.421,5.011,9.735,8.276l-21.672,11.43Z" transform="translate(-501.542 -754.372)" fill="#102048"/>
    <path id="Trazado_140" data-name="Trazado 140" d="M1015.465,1304.814l2.515,5.729c.826,1.915,1.6,3.852,2.4,5.779,1.544,3.875,3.033,7.775,4.431,11.706,2.831,7.851,5.337,15.815,7.688,23.821q3.465,12.028,6.223,24.245c.885,4.078,1.742,8.162,2.5,12.265s1.382,8.232,1.925,12.37l-.538.077q-1.022-6.157-2.34-12.26c-.837-4.076-1.77-8.131-2.731-12.179q-2.892-12.142-6.364-24.137c-2.274-8.005-4.8-15.935-7.473-23.815-1.319-3.947-2.751-7.854-4.2-11.754-.739-1.944-1.45-3.9-2.213-5.837l-2.327-5.794Z" transform="translate(-526.392 -620.625)" fill="#102048"/>
    <g id="Grupo_91" data-name="Grupo 91" transform="translate(465.105 771.457)">
      <path id="Trazado_141" data-name="Trazado 141" d="M1056.169,1551.857s-4.1,4.843-17.027.126c-6.092.707-17.424.165-38.973-3.351,0,0,7.826,5.472,25.521,6.412,0,0-.755,5.211-10.082,4.978-11.225-.281-12.523-.959-22.751-.533-2.092.087-6.644-.01-11.574-.165-8.6-.281-18.373-.736-18.373-.736l-8.523-15.235,17.007-8.145c5.22-2.043,7.826-2.75,10.363-3.109,10.983-1.559,17.918-2.8,25.792-1.443C1016.295,1532.157,1043.016,1541.02,1056.169,1551.857Z" transform="translate(-954.387 -1530.075)" fill="#f9b384"/>
    </g>
    <path id="Trazado_142" data-name="Trazado 142" d="M981.757,1562.264l-.475.261c-8.6-.281-18.373-.736-18.373-.736l-8.523-15.235,17.007-8.145c5.22-2.043,7.826-2.751,10.363-3.109C975.506,1537.847,970.387,1544.531,981.757,1562.264Z" transform="translate(-489.282 -761.818)" fill="#e28b6d"/>
    <path id="Trazado_143" data-name="Trazado 143" d="M703.609,1182c-22.127-4.533-76.051-8.306-91.119,19.611-12.405,22.983,18.689,99.949,32.159,127.018,5.544,11.141,21.643,16.654,27.9,16.7l88.905-.511c-5.981-1.387-13.647-33.482,6.484-32.574l-73.631-10.257a10.086,10.086,0,0,1-7.03-4.419,21.111,21.111,0,0,1-2.932-5.956l-20.9-76.552Z" transform="translate(-278.084 -543.457)" fill="#ee2a7b"/>
    <path id="Trazado_144" data-name="Trazado 144" d="M1222.838,1595.553l-86.741-.054v-8.183h87.244Z" transform="translate(-600.596 -793.683)" fill="#fff"/>
    <g id="Grupo_92" data-name="Grupo 92" transform="translate(590.893 690.235)">
      <path id="Trazado_145" data-name="Trazado 145" d="M1383.714,1432.054l-104.635-.032,38.166-111.6,104.635.032Z" transform="translate(-1279.079 -1320.419)" fill="#102048"/>
      <path id="Trazado_146" data-name="Trazado 146" d="M1455.324,1453.926c-3.206,5.124-9.2,7.225-13.772,4.978a7.091,7.091,0,0,1-.794-.436c-4.659-2.906-5.676-9.666-2.286-15.08s9.908-7.458,14.567-4.542a8.835,8.835,0,0,1,3.2,3.535A11.952,11.952,0,0,1,1455.324,1453.926Z" transform="translate(-1375.496 -1392.151)" fill="#fff"/>
      <path id="Trazado_147" data-name="Trazado 147" d="M1458.871,1457.856c-3.206,5.124-11.086,8.846-16.611,2.755,11.981,1.087,16.017-6.761,15.79-16.68C1462.151,1448.461,1461.234,1454.079,1458.871,1457.856Z" transform="translate(-1379.042 -1396.082)" fill="#708cd5"/>
    </g>
    <g id="Grupo_93" data-name="Grupo 93" transform="translate(512.535 771.758)">
      <path id="Trazado_148" data-name="Trazado 148" d="M1091.58,1530.851a86.871,86.871,0,0,1,13.019,3.222c4.265,1.337,8.456,2.9,12.579,4.631a116.233,116.233,0,0,1,12.1,5.8,62.663,62.663,0,0,1,11.056,7.616l-.361.439a65.8,65.8,0,0,0-5.509-3.694c-1.882-1.161-3.822-2.229-5.788-3.245-3.926-2.043-7.944-3.922-12.055-5.586-4.058-1.788-8.23-3.307-12.409-4.793q-3.139-1.105-6.321-2.078c-2.116-.662-4.252-1.269-6.407-1.748Z" transform="translate(-1085.801 -1530.851)" fill="#6f3428"/>
      <path id="Trazado_149" data-name="Trazado 149" d="M1086.964,1584.158l4.681,1.339c1.559.417,3.128.778,4.7,1.1s3.163.573,4.756.8c1.6.209,3.2.369,4.806.529l.534.053.043.462a4.393,4.393,0,0,1-.175,1.729,3.2,3.2,0,0,1-.938,1.476,3.554,3.554,0,0,1-1.522.739,7.337,7.337,0,0,1-.8.114l-.785-.02v-.568l.7-.105c.221-.067.452-.1.659-.186a2.651,2.651,0,0,0,1.057-.687,2.251,2.251,0,0,0,.55-1.063,3.287,3.287,0,0,0,.032-1.224l.577.515a47.391,47.391,0,0,1-9.793-1.2,42.361,42.361,0,0,1-4.74-1.4,48.356,48.356,0,0,1-4.545-1.874Z" transform="translate(-1082.911 -1563.506)" fill="#6f3428"/>
      <path id="Trazado_150" data-name="Trazado 150" d="M1076.9,1555.047c3.763.481,7.547.85,11.332,1.236,3.781.417,7.572.785,11.355,1.383,3.766.6,7.509,1.286,11.254,1.966s7.486,1.373,11.217,2.127l.884.179-.378.82a10.873,10.873,0,0,1-.963,2.011,5.694,5.694,0,0,1-.8.937,10.152,10.152,0,0,1-.981.693,13.084,13.084,0,0,1-4.276,1.355,44.129,44.129,0,0,1-8.621.357c-1.428-.053-2.855-.114-4.275-.241-1.422-.1-2.844-.209-4.256-.389-2.833-.3-5.65-.7-8.463-1.106l.071-.563c2.829.233,5.648.547,8.476.714q2.119.165,4.238.258c1.412.091,2.824.115,4.234.131a49.923,49.923,0,0,0,8.371-.49,11.862,11.862,0,0,0,3.8-1.218c.276-.156.5-.361.753-.537a4.368,4.368,0,0,0,.571-.682,10.239,10.239,0,0,0,.842-1.835l.506,1c-7.47-1.407-14.932-2.912-22.411-4.208-3.719-.678-7.5-1.134-11.264-1.639-3.768-.523-7.546-1-11.3-1.7Z" transform="translate(-1076.815 -1545.673)" fill="#6f3428"/>
    </g>
    <line id="Línea_31" data-name="Línea 31" x2="661.942" transform="translate(155.679 801.406)" fill="none" stroke="#102048" stroke-miterlimit="10" stroke-width="5"/>
    <path id="Trazado_151" data-name="Trazado 151" d="M823.578,1249.135a31.656,31.656,0,0,0,10.536,4.665,28.907,28.907,0,0,0,11.4.438,23.694,23.694,0,0,0,10.461-4.337,24.057,24.057,0,0,0,7.25-8.814l.521.225q-.6,1.357-1.244,2.714c-.485.869-1.056,1.693-1.589,2.544-.59.809-1.293,1.533-1.938,2.3-.695.725-1.487,1.354-2.23,2.036a23.974,23.974,0,0,1-11,4.748,28.844,28.844,0,0,1-22.515-6.069Z" transform="translate(-408.941 -581.585)" fill="#102048"/>
    <path id="Trazado_152" data-name="Trazado 152" d="M757.352,1304.9l4.855,16.5,4.777,16.521,4.727,16.535,2.35,8.272,1.175,4.135a31.219,31.219,0,0,0,1.28,3.991,11.89,11.89,0,0,0,5.658,5.621,33.087,33.087,0,0,0,7.964,2.655c2.777.6,5.586,1,8.436,1.367l8.521,1.153,17.034,2.358,17.023,2.45-.071.539L824,1384.975l-17.068-2.117-8.531-1.084c-2.836-.351-5.709-.75-8.541-1.345a34.365,34.365,0,0,1-8.314-2.738,13.063,13.063,0,0,1-6.287-6.266,6.852,6.852,0,0,1-.415-1.057c-.118-.356-.253-.723-.339-1.062l-.579-2.07-1.157-4.141-2.315-8.281-4.6-16.571-4.552-16.585-4.474-16.607Z" transform="translate(-368.26 -620.679)" fill="#102048"/>
    <g id="Grupo_96" data-name="Grupo 96" transform="translate(351.978 505.607)">
      <path id="Trazado_153" data-name="Trazado 153" d="M827.174,1083.073l4.359,37.531c1.3,11.171-10.477,20.533-22.41,17.436-6.823-1.772-13.934-6.493-21.292-13.592a8.65,8.65,0,0,1-2.639-5.358l-4.647-45.233Z" transform="translate(-734.766 -984.75)" fill="#f9b384"/>
      <path id="Trazado_154" data-name="Trazado 154" d="M847.634,1108.009l2.374,20.436c-9.643,1.512-23.238-3.909-37.031-22.216Z" transform="translate(-754.633 -1004.58)" fill="#3c1c16"/>
      <path id="Trazado_155" data-name="Trazado 155" d="M846.342,946.7A101.037,101.037,0,0,1,842.8,967c-3.226,10.736-8.854,19.4-18.5,21-28.389,4.719-48.962-23.5-48.962-23.5l-3.3-38.4,17.134-29.641,38.365-1.113,18.71,22.131A183.654,183.654,0,0,1,846.342,946.7Z" transform="translate(-729.556 -875.393)" fill="#f9b384"/>
      <path id="Trazado_156" data-name="Trazado 156" d="M754.878,925.322c15.239-1.137,18.748-14.016,19.79-30.709,0,0,41.277-10.224,55.931,19.119l11.112,1.2L808.06,870.262l-52.3,6.239-10.232,33.951Z" transform="translate(-713.313 -860.029)" fill="#6f3428"/>
      <path id="Trazado_157" data-name="Trazado 157" d="M762.658,995.17a8.314,8.314,0,0,0-7.121-2.66c-10.123,1.225-11.882,14.632-9.567,20.336,3.464,8.538,12.844,11.138,12.844,11.138l8.059-8.524C767.517,1006.584,766.508,999.412,762.658,995.17Z" transform="translate(-713.031 -934.881)" fill="#f9b384"/>
      <path id="Trazado_158" data-name="Trazado 158" d="M712.171,1100.425c5.563,15.82,22.678,60.493-5.276,59.37-13.473-.541-25.312-26.675-44.518-21.741a50.5,50.5,0,0,1,7.182-2.775Z" transform="translate(-662.377 -1001.025)" fill="#3c1c16" opacity="0.15"/>
      <path id="Trazado_159" data-name="Trazado 159" d="M719.516,1073.845c5.392,10.242,20.478,60.914-5.218,57.988-12.385-1.411-15.426-16.329-33.383-12.836Z" transform="translate(-673.733 -984.742)" fill="#6f3428"/>
      <g id="Grupo_94" data-name="Grupo 94" transform="translate(37.099 50.083)">
        <path id="Trazado_160" data-name="Trazado 160" d="M767.706,1011.609a5.6,5.6,0,0,0-.924-3.2,5.71,5.71,0,0,0-2.38-2.093,3.851,3.851,0,0,0-2.933-.158,7.506,7.506,0,0,0-2.707,2.008l-.623-.37a5.884,5.884,0,0,1,2.667-3.125,3.523,3.523,0,0,1,1.054-.394,3.646,3.646,0,0,1,1.13-.138l.572.019.553.117a3.96,3.96,0,0,1,1.058.363,6.281,6.281,0,0,1,3,3.018,5.252,5.252,0,0,1,.24,4.107Z" transform="translate(-758.14 -992.119)" fill="#3c1c16"/>
        <path id="Trazado_161" data-name="Trazado 161" d="M923.025,1001.01c.091,2.61,1.612,4.675,3.4,4.612s3.157-2.229,3.065-4.839-1.612-4.675-3.4-4.612S922.934,998.4,923.025,1001.01Z" transform="translate(-859.145 -987.241)" fill="#3c1c16"/>
        <path id="Trazado_162" data-name="Trazado 162" d="M850.372,1003.555c.091,2.61,1.612,4.675,3.4,4.612s3.157-2.229,3.065-4.839-1.612-4.675-3.4-4.612S850.281,1000.945,850.372,1003.555Z" transform="translate(-814.638 -988.801)" fill="#3c1c16"/>
        <path id="Trazado_163" data-name="Trazado 163" d="M889.52,1071.9a13.85,13.85,0,0,1-4.64,3.952,9.092,9.092,0,0,1-6.371.454,15.793,15.793,0,0,1-5.4-2.95,25.177,25.177,0,0,1-4.2-4.234l.586-.606c1.607,1.111,3.115,2.3,4.712,3.3a19.352,19.352,0,0,0,4.9,2.429,8.208,8.208,0,0,0,5.063-.088,20.439,20.439,0,0,0,4.765-2.859Z" transform="translate(-825.996 -1031.559)" fill="#3c1c16"/>
        <path id="Trazado_164" data-name="Trazado 164" d="M923.709,978.831a23.688,23.688,0,0,0-3.62-2.222,6.878,6.878,0,0,0-3.534-.645,12.261,12.261,0,0,0-3.661,1.078c-1.265.55-2.5,1.29-3.926,1.92l-.388-.407A11.47,11.47,0,0,1,911.666,975a8.993,8.993,0,0,1,4.671-1.845,7.118,7.118,0,0,1,4.947,1.511,8.9,8.9,0,0,1,2.866,3.82Z" transform="translate(-850.299 -973.124)" fill="#3c1c16"/>
        <path id="Trazado_165" data-name="Trazado 165" d="M847.739,981.787a14.843,14.843,0,0,0-4.067-2.136,10.2,10.2,0,0,0-4.174-.424,15.482,15.482,0,0,0-4.2,1.126c-1.4.581-2.78,1.334-4.312,2.065l-.388-.406a12.039,12.039,0,0,1,3.542-3.78,10.718,10.718,0,0,1,5.088-1.852,9.056,9.056,0,0,1,5.4,1.163,8.32,8.32,0,0,1,3.555,3.9Z" transform="translate(-802.53 -975.092)" fill="#3c1c16"/>
        <path id="Trazado_166" data-name="Trazado 166" d="M804.465,1040.909a10.322,10.322,0,1,0,9.954-10.677A10.322,10.322,0,0,0,804.465,1040.909Z" transform="translate(-786.514 -1008.104)" fill="#fc8879" opacity="0.5"/>
        <path id="Trazado_167" data-name="Trazado 167" d="M945.861,1027.831a101.025,101.025,0,0,1-3.542,20.3,10.328,10.328,0,0,1,2.132-20.341A11.839,11.839,0,0,1,945.861,1027.831Z" transform="translate(-866.175 -1006.61)" fill="#fc8879" opacity="0.5"/>
        <path id="Trazado_168" data-name="Trazado 168" d="M892.27,1002.765a.441.441,0,0,1,.863-.08c2.309,7.529,9.805,13.034,8.606,15.243-.845,1.556-4.016,3.318-6.24,4.405a1.989,1.989,0,0,1-2.828-1.409A64.926,64.926,0,0,1,892.27,1002.765Z" transform="translate(-840.04 -991.037)" fill="#fc8879" opacity="0.5"/>
        <path id="Trazado_169" data-name="Trazado 169" d="M895.781,1001.428a19.31,19.31,0,0,0,2.744,6.089c1.228,1.885,2.666,3.634,4.119,5.476.367.461.72.941,1.068,1.451a8.131,8.131,0,0,1,.962,1.77,2.573,2.573,0,0,1,.136,1.4,2.811,2.811,0,0,1-.659,1.2,7.843,7.843,0,0,1-1.5,1.285,24.519,24.519,0,0,1-6.532,2.933l-.322-.779c.991-.588,2.006-1.144,2.963-1.77a27.177,27.177,0,0,0,2.764-1.9,7.805,7.805,0,0,0,1.08-1.046,1.611,1.611,0,0,0,.185-.3,1.32,1.32,0,0,0-.09-.308,13.939,13.939,0,0,0-1.748-2.617,41.962,41.962,0,0,1-4.007-5.854,15.222,15.222,0,0,1-2-6.926Z" transform="translate(-841.945 -990.463)" fill="#3c1c16"/>
      </g>
      <g id="Grupo_95" data-name="Grupo 95" transform="translate(7.382)">
        <path id="Trazado_170" data-name="Trazado 170" d="M710.813,1080.589a9.693,9.693,0,0,0-.771,4.607,15.5,15.5,0,0,0,1.107,4.611c1.248,2.942,2.912,5.821,4.373,8.789a34.6,34.6,0,0,1,3.394,9.484,21.229,21.229,0,0,1,.246,5.146,21.469,21.469,0,0,1-.424,2.582,12.287,12.287,0,0,1-.955,2.488,9.987,9.987,0,0,1-3.582,3.979,8.339,8.339,0,0,1-5.284,1.239,19.554,19.554,0,0,1-4.944-1.521c-1.538-.641-3.041-1.312-4.535-1.983a42.32,42.32,0,0,0-9.146-3.179,10.7,10.7,0,0,0-4.642,0,6.318,6.318,0,0,0-2.037,1,7,7,0,0,0-1.557,1.707l-.626-.365a7.8,7.8,0,0,1,1.615-2.043,7.275,7.275,0,0,1,2.306-1.285,11.718,11.718,0,0,1,5.146-.293,43.57,43.57,0,0,1,9.573,2.968l4.549,1.888a18.21,18.21,0,0,0,4.473,1.349,6.531,6.531,0,0,0,4.137-1.02,8.65,8.65,0,0,0,2.924-3.29,10.46,10.46,0,0,0,.832-2.1,20.147,20.147,0,0,0,.4-2.283,19.462,19.462,0,0,0-.181-4.692,36.666,36.666,0,0,0-3.092-9.1c-1.349-2.983-2.93-5.856-4.137-9.027a16.629,16.629,0,0,1-.942-5.008,10.052,10.052,0,0,1,1.135-4.974Z" transform="translate(-681.431 -988.674)" fill="#3c1c16"/>
        <path id="Trazado_171" data-name="Trazado 171" d="M758.616,849.485a54.52,54.52,0,0,1,8.627-2.923,86.148,86.148,0,0,1,8.913-1.834,76.283,76.283,0,0,1,9.07-.857c1.521-.038,3.046-.033,4.57.042a32.5,32.5,0,0,1,4.547.586l-.1.718c-1.492-.046-2.971-.1-4.462-.007-1.487.033-2.975.134-4.459.279q-4.454.405-8.891,1.065c-2.957.433-5.9.969-8.835,1.535-1.468.283-2.928.61-4.38.958-1.464.315-2.9.728-4.344,1.118Z" transform="translate(-728.714 -843.848)" fill="#3c1c16"/>
        <path id="Trazado_172" data-name="Trazado 172" d="M820.324,928.124a16.537,16.537,0,0,1,3.86-1.372c1.317-.306,2.644-.573,3.981-.749a59.516,59.516,0,0,1,8.063-.509,61.367,61.367,0,0,1,16.01,2.166,42.941,42.941,0,0,1,14.579,7.069,31.313,31.313,0,0,1,9.93,12.681l-.654.311a34.061,34.061,0,0,0-10.244-11.694,41.839,41.839,0,0,0-6.742-3.933,51.555,51.555,0,0,0-7.367-2.667,65.08,65.08,0,0,0-15.542-2.369,61.6,61.6,0,0,0-7.891.191,27.216,27.216,0,0,0-7.653,1.519Z" transform="translate(-766.516 -893.864)" fill="#3c1c16"/>
      </g>
    </g>
    <g id="Grupo_100" data-name="Grupo 100" transform="translate(202.546 670.628)">
      <g id="Grupo_97" data-name="Grupo 97" transform="translate(25.398 13.713)">
        <path id="Trazado_173" data-name="Trazado 173" d="M345.022,1305.258l9.958,3.228a2.189,2.189,0,0,1,.263,4.06l-10.875,5.157.019.148,15.213,3.031a1.055,1.055,0,0,1-.412,2.069l-15.213-3.031a2.188,2.188,0,0,1-.511-4.124l10.875-5.157-.01-.146-9.958-3.227a1.055,1.055,0,1,1,.651-2.007Z" transform="translate(-342.213 -1305.206)" fill="#3c1c16"/>
      </g>
      <g id="Grupo_98" data-name="Grupo 98" transform="translate(0)">
        <path id="Trazado_174" data-name="Trazado 174" d="M279.15,1269.856l8.844,2.866a1.944,1.944,0,0,1,.234,3.606l-9.658,4.58.017.131,13.51,2.692a.937.937,0,1,1-.366,1.838l-13.51-2.692a1.944,1.944,0,0,1-.453-3.662l9.658-4.58-.009-.13-8.843-2.866a.937.937,0,0,1,.578-1.783Z" transform="translate(-276.655 -1269.81)" fill="#3c1c16"/>
      </g>
      <g id="Grupo_99" data-name="Grupo 99" transform="translate(53.893 34.746)">
        <path id="Trazado_175" data-name="Trazado 175" d="M417.744,1359.533l7.012,2.273a1.542,1.542,0,0,1,.185,2.859l-7.658,3.631.013.1,10.712,2.134a.743.743,0,1,1-.29,1.457l-10.712-2.134a1.541,1.541,0,0,1-.359-2.9l7.658-3.631-.007-.1-7.012-2.273a.743.743,0,1,1,.458-1.413Z" transform="translate(-415.766 -1359.497)" fill="#3c1c16"/>
      </g>
    </g>
    <g id="Grupo_102" data-name="Grupo 102" transform="translate(656.332 603.863)">
      <path id="Rectángulo_77" data-name="Rectángulo 77" d="M23.267,0h3.1A23.267,23.267,0,0,1,49.632,23.267v0A23.267,23.267,0,0,1,26.365,46.533h-3.1A23.266,23.266,0,0,1,0,23.267v0A23.267,23.267,0,0,1,23.267,0Z" fill="#fff" stroke="#1f3c88" stroke-miterlimit="10" stroke-width="3.75"/>
      <path id="Trazado_176" data-name="Trazado 176" d="M1497.785,1226.781l-9.021-9.2h18.042Z" transform="translate(-1472.969 -1171.053)" fill="#1f3c88"/>
      <g id="Grupo_101" data-name="Grupo 101" transform="translate(13.355 10.082)">
        <path id="Trazado_177" data-name="Trazado 177" d="M1493.135,1149.865a1.649,1.649,0,0,1-1.255-.581l-9.021-10.608a1.648,1.648,0,0,1,2.51-2.136l7.479,8.795,11.648-20.992a1.648,1.648,0,0,1,2.883,1.6l-12.8,23.073a1.652,1.652,0,0,1-1.279.841A1.546,1.546,0,0,1,1493.135,1149.865Z" transform="translate(-1482.466 -1123.495)" fill="#1f3c88"/>
      </g>
    </g>
    <g id="Grupo_108" data-name="Grupo 108" transform="translate(182.762 724.678)">
      <g id="Grupo_103" data-name="Grupo 103" transform="translate(0 27.337)">
        <path id="Trazado_178" data-name="Trazado 178" d="M263.675,1480.032c-13.82,3.273-29.148,7.81-35.7,21.743-6.192,13.161.253,25.943,12.692,32.167,8.417,4.212,40.493,11.308,27.174,26.874-8.606,10.058-23.549,6.947-33.376,1.009-5.12-3.094-9.786,4.92-4.68,8.005,11.174,6.752,24.038,9.228,36.192,3.646,13.192-6.058,18.383-21.59,8.319-32.951-5.161-5.826-12.45-8.564-19.614-11.029-6.775-2.331-15.647-4.937-18.937-12.08-3.1-6.723.967-14.407,6.124-18.832,6.674-5.725,15.956-7.641,24.273-9.611,5.8-1.375,3.346-10.317-2.465-8.94Z" transform="translate(-225.588 -1479.888)" fill="#ee6f57"/>
      </g>
      <g id="Grupo_104" data-name="Grupo 104" transform="translate(161.13 22.811)">
        <path id="Trazado_179" data-name="Trazado 179" d="M645.487,1489.83c15.711.916,16.838-19.546,16.838-19.546s-10.747-5.455-20.819,1.31Z" transform="translate(-641.506 -1468.206)" fill="#ee6f57"/>
        <path id="Trazado_180" data-name="Trazado 180" d="M652.357,1493.479c6.257-.1,9.335-7.964,9.335-7.964a11.216,11.216,0,0,0-10.421.067Z" transform="translate(-647.488 -1478.053)" fill="#3c1c16"/>
      </g>
      <g id="Grupo_105" data-name="Grupo 105" transform="translate(116.743)">
        <path id="Trazado_181" data-name="Trazado 181" d="M530.928,1434.821c-10.894-11.358,3.94-25.5,3.94-25.5s11.126,4.636,12.516,16.689Z" transform="translate(-526.932 -1409.325)" fill="#ee6f57"/>
        <path id="Trazado_182" data-name="Trazado 182" d="M544.574,1444.364c-3.8-4.6,0-11.705,0-11.705a10.7,10.7,0,0,1,6.4,7.6Z" transform="translate(-536.704 -1423.619)" fill="#3c1c16"/>
      </g>
      <path id="Trazado_183" data-name="Trazado 183" d="M401.336,1494.066a3.91,3.91,0,0,1-3.031,2.286c-10.625,1.637-13.22-1.3-13.22-1.3s-8.455,4.707-28.329-.891a4.579,4.579,0,0,1-2.634,2.034c-3.042,1-14.848-.029-22.538-.833-4.648-.494-18.266.6-18.266.6-12.406,0-26.5-3.312-31.952-15.758-6.905-15.748.359-34.625,12.068-45.9,12.494-12.048,29.162-13.133,44.319-5.24,36.765,19.157,39.545,12.91,48.978,4.969l6.363,48.281a13.051,13.051,0,0,1,5.23,3.109,16.227,16.227,0,0,1,2.092,2.654C402.062,1490.734,401.907,1492.73,401.336,1494.066Z" transform="translate(-258.111 -1418.328)" fill="#ee6f57"/>
      <path id="Trazado_184" data-name="Trazado 184" d="M514.267,1475.138c-14.741,8.663-15.226,36.1,13.233,38.784l3.26-12.445Z" transform="translate(-396.34 -1449.641)" fill="#3c1c16" opacity="0.3"/>
      <path id="Trazado_185" data-name="Trazado 185" d="M573.763,1475.745c-2.992,10.518-7.932,16.542-13,19.893a23.439,23.439,0,0,1-12.988,3.971,30.412,30.412,0,0,1-9.182-1.433c-11.274-3.545-20.484-13.424-20.484-26.4,0-16.387,11.9-28.949,26.886-28.949C562.151,1442.825,579.09,1456.985,573.763,1475.745Z" transform="translate(-404.786 -1429.847)" fill="#ee6f57"/>
      <path id="Trazado_186" data-name="Trazado 186" d="M595.01,1574.392a23.439,23.439,0,0,1-12.988,3.971c-.232,0-.455,0-.688-.01a16.214,16.214,0,0,0-2.092-2.654,13.055,13.055,0,0,0-5.23-3.109c4.6-.939,7.264.291,7.264.291s8.475-4.213,13.714,1.492Z" transform="translate(-439.03 -1508.6)" fill="#3c1c16" opacity="0.3"/>
      <path id="Trazado_187" data-name="Trazado 187" d="M585.424,1583.3a4.918,4.918,0,0,0,.852,6.725,2.555,2.555,0,0,0,1.5.614h14.776c.706,0,1.083-.756,1.274-1.739a8.341,8.341,0,0,0-2.971-7.9C596.085,1577,589.734,1577.1,585.424,1583.3Z" transform="translate(-445.442 -1512.821)" fill="#ee6f57"/>
      <g id="Grupo_106" data-name="Grupo 106" transform="translate(113.322 62.489)">
        <path id="Trazado_188" data-name="Trazado 188" d="M518.1,1570.678a66.877,66.877,0,0,1,8.961.26,58.952,58.952,0,0,1,8.877,1.478,32.229,32.229,0,0,1,4.315,1.4,20.611,20.611,0,0,1,4.064,2.126,10.592,10.592,0,0,1,3.2,3.393,7.071,7.071,0,0,1,.753,4.566l-.54-.058a6.687,6.687,0,0,0-1.05-4.014,9.511,9.511,0,0,0-3.04-2.878,28.13,28.13,0,0,0-8.046-3.2,71.489,71.489,0,0,0-8.666-1.645c-2.925-.394-5.877-.682-8.828-.884Z" transform="translate(-518.101 -1570.625)" fill="#3c1c16"/>
      </g>
      <g id="Grupo_107" data-name="Grupo 107" transform="translate(63.899 33.371)">
        <path id="Trazado_189" data-name="Trazado 189" d="M390.633,1495.464a18.679,18.679,0,0,1,8.36,3.386,12.145,12.145,0,0,1,3.057,3.457,14.264,14.264,0,0,1,1.647,4.32,20.393,20.393,0,0,1,.351,4.58,31.419,31.419,0,0,1-.567,4.522,45.664,45.664,0,0,1-2.739,8.616c-.583,1.389-1.24,2.743-1.958,4.073l-.275.5-.145.253-.009.016c.065.218-.62-1.834-.322-.963l.032.013.064.026.127.051,1.024.4c.685.263,1.378.5,2.074.736a54.173,54.173,0,0,0,8.564,2.03,85.175,85.175,0,0,1,8.837,1.468,23.189,23.189,0,0,1,4.3,1.462,7.181,7.181,0,0,1,1.958,1.28,2.347,2.347,0,0,1,.669,1.071,1.714,1.714,0,0,1-.165,1.292l-.478-.258a1.321,1.321,0,0,0-.494-1.617,6.528,6.528,0,0,0-1.81-1.062,22.781,22.781,0,0,0-4.194-1.222,84.592,84.592,0,0,0-8.791-1.213,50.748,50.748,0,0,1-8.8-1.972c-.716-.233-1.431-.472-2.137-.736l-1.056-.4-.132-.052-.065-.026-.033-.013c.291.866-.417-1.186-.339-.98l.008-.014.131-.233.26-.48c.685-1.293,1.3-2.627,1.894-3.971a44.379,44.379,0,0,0,2.729-8.335,30.132,30.132,0,0,0,.578-4.316,21.023,21.023,0,0,0-.237-4.3,12,12,0,0,0-4.143-7.268,18.587,18.587,0,0,0-7.873-3.584Z" transform="translate(-390.529 -1495.464)" fill="#3c1c16"/>
      </g>
      <path id="Trazado_190" data-name="Trazado 190" d="M607.078,1505.749c1.036,1.9,2.438,3.611,4.31,4.194a7.209,7.209,0,0,0,2.979.253c.52-.048,1.04-.191,1.577-.268.522-.153,1.049-.308,1.6-.431l.266.54c-.484.32-1,.609-1.513.9a13.024,13.024,0,0,1-1.7.59,6.936,6.936,0,0,1-3.712-.088,6.076,6.076,0,0,1-3.029-2.2,7.169,7.169,0,0,1-1.367-3.326Z" transform="translate(-458.929 -1468.394)" fill="#3c1c16"/>
      <path id="Trazado_191" data-name="Trazado 191" d="M563.548,1486.961c.884,1.979,2.15,3.789,3.972,4.516a7.2,7.2,0,0,0,2.951.483c.522-.008,1.052-.11,1.593-.145.532-.112,1.07-.225,1.633-.3l.224.559c-.508.281-1.04.53-1.578.776a12.987,12.987,0,0,1-1.737.456,6.93,6.93,0,0,1-3.694-.375,6.075,6.075,0,0,1-2.849-2.433,7.168,7.168,0,0,1-1.1-3.422Z" transform="translate(-432.257 -1456.884)" fill="#3c1c16"/>
    </g>
    <g id="Grupo_110" data-name="Grupo 110" transform="translate(615.218 418.043)">
      <path id="Trazado_192" data-name="Trazado 192" d="M1467.809,768.441h16.367l-13.07-84.611h-16.367Z" transform="translate(-1411.011 -658.258)" fill="#8cbfbe"/>
      <path id="Trazado_193" data-name="Trazado 193" d="M1510.091,768.441h16.367l-13.07-84.611h-16.367Z" transform="translate(-1436.913 -658.258)" fill="#c6eae9"/>
      <g id="Grupo_109" data-name="Grupo 109" transform="translate(95.697 71.315)">
        <rect id="Rectángulo_78" data-name="Rectángulo 78" width="60.402" height="38.855" fill="#8cbfbe"/>
        <rect id="Rectángulo_79" data-name="Rectángulo 79" width="25.542" height="6.804" transform="translate(17.43 12.624)" fill="#fff"/>
      </g>
      <rect id="Rectángulo_80" data-name="Rectángulo 80" width="28.422" height="110.17" transform="translate(15.305 0)" fill="#c6eae9"/>
      <rect id="Rectángulo_81" data-name="Rectángulo 81" width="170.102" height="12.234" transform="translate(0 110.17)" fill="#8cbfbe"/>
    </g>
    <g id="Grupo_112" data-name="Grupo 112" transform="translate(411.493 291.701)">
      <circle id="Elipse_22" data-name="Elipse 22" cx="54.681" cy="54.681" r="54.681" transform="translate(0 77.33) rotate(-45)" fill="#fff" stroke="#708cd5" stroke-miterlimit="10" stroke-width="5"/>
      <g id="Grupo_111" data-name="Grupo 111" transform="translate(75.588 55.087)">
        <path id="Trazado_194" data-name="Trazado 194" d="M1034.48,467.492l-23.367-11.11,25.53-22.487,1.281,1.454L1014.6,455.894l20.715,9.848Z" transform="translate(-1011.112 -433.895)" fill="#102048"/>
      </g>
    </g>
    <g id="Grupo_116" data-name="Grupo 116" transform="translate(167.999 398.903)">
      <g id="Grupo_114" data-name="Grupo 114" transform="translate(49.903)">
        <rect id="Rectángulo_82" data-name="Rectángulo 82" width="109.097" height="71.805" rx="30.862" fill="#c6eae9"/>
        <g id="Grupo_113" data-name="Grupo 113" transform="translate(13.803 18.021)">
          <rect id="Rectángulo_83" data-name="Rectángulo 83" width="81.491" height="6.787" fill="#8cbfbe"/>
          <rect id="Rectángulo_84" data-name="Rectángulo 84" width="81.491" height="6.787" transform="translate(0 14.487)" fill="#fff" opacity="0.8"/>
          <rect id="Rectángulo_85" data-name="Rectángulo 85" width="81.491" height="6.787" transform="translate(0 28.975)" fill="#fff" opacity="0.8"/>
        </g>
      </g>
      <path id="Trazado_195" data-name="Trazado 195" d="M362.975,922.17l-15.489-12.113h30.977Z" transform="translate(-285.499 -777.703)" fill="#ee2a7b"/>
      <rect id="Rectángulo_86" data-name="Rectángulo 86" width="109.097" height="71.805" rx="30.862" transform="translate(0 60.559)" fill="#ee2a7b"/>
      <g id="Grupo_115" data-name="Grupo 115" transform="translate(23.077 78.335)" opacity="0.8">
        <rect id="Rectángulo_87" data-name="Rectángulo 87" width="10.561" height="13.054" transform="translate(0 23.2)" fill="#fff"/>
        <rect id="Rectángulo_88" data-name="Rectángulo 88" width="10.561" height="27.586" transform="translate(16.958 8.668)" fill="#fff"/>
        <rect id="Rectángulo_89" data-name="Rectángulo 89" width="10.561" height="21.321" transform="translate(34.67 14.932)" fill="#fff"/>
        <rect id="Rectángulo_90" data-name="Rectángulo 90" width="10.561" height="36.254" transform="translate(52.382)" fill="#fff"/>
      </g>
    </g>
  </g>
</svg>