<?xml version="1.0" encoding="UTF-8"?>
<svg id="Capa_2" data-name="Capa 2" xmlns="http://www.w3.org/2000/svg" viewBox="0 0 42.26 42.26">
  <defs>
    <style>
      .cls-1 {
        fill: #ee2a7b;
      }
    </style>
  </defs>
  <g id="Capa_1-2" data-name="Capa 1">
    <path class="cls-1" d="M13.51,22.43h3.57v2.47c-.87,.75-2,1.15-3.15,1.12-2.43,.22-4.58-1.58-4.8-4.01-.02-.22-.02-.44,0-.66,0-2.87,1.82-5.15,4.81-5.15,1.32,.01,2.59,.51,3.57,1.4l1.64-1.68c-1.38-1.37-3.24-2.13-5.19-2.13-4.94,0-7.4,3.63-7.4,7.56,0,3.67,2.14,7.13,7.39,7.13,2.14,.06,4.2-.86,5.57-2.52v-5.89h-5.98v2.35Z"/>
    <path class="cls-1" d="M29.13,13.92c-.17,0-.34-.01-.52,0-3.9-.1-7.15,2.98-7.25,6.88,0,.16,0,.32,0,.48,0,3.67,2.28,7.2,7.18,7.2s7.13-3.61,7.16-7.22c.21-3.84-2.74-7.12-6.59-7.33Zm-.58,12.14c-3.29,0-4.53-2.45-4.59-4.75-.25-2.5,1.57-4.73,4.07-4.99,.19-.02,.39-.03,.58-.02,3.21,.06,4.55,2.65,4.51,4.99-.04,2.33-1.28,4.77-4.57,4.77Z"/>
    <path class="cls-1" d="M33.33,0H8.93C4,.01,.01,4,0,8.93v24.41c.01,4.93,4,8.92,8.93,8.93h24.4c4.93,0,8.92-4,8.93-8.93V8.93c-.01-4.93-4-8.92-8.93-8.93Zm6.07,33.34c-.01,3.35-2.73,6.06-6.07,6.07H8.93c-3.35,0-6.06-2.72-6.07-6.07V8.93c0-3.35,2.72-6.06,6.07-6.07h24.4c3.35,0,6.07,2.72,6.08,6.07v24.41Z"/>
  </g>
</svg>