<?xml version="1.0" encoding="utf-8"?>
<!-- Generator: Adobe Illustrator 25.0.0, SVG Export Plug-In . SVG Version: 6.00 Build 0)  -->
<svg version="1.1" id="_x2014_ÎÓÈ_x5F_1" xmlns="http://www.w3.org/2000/svg" xmlns:xlink="https://www.w3.org/1999/xlink"
	 x="0px" y="0px" viewBox="0 0 344.2 266.6" style="enable-background:new 0 0 344.2 266.6;" xml:space="preserve">
<style type="text/css">
	.st0{fill:#EFEFEF;}
	.st1{fill:#173D7A;}
	.st2{fill:#396CAA;}
	.st3{fill:#274F89;}
	.st4{fill:#D4ECFF;}
	.st5{fill:#FFFFFF;}
	.st6{fill:#5793CE;}
	.st7{fill:#B9DFF9;}
	.st8{fill:#ED2A7A;}
	.st9{fill:#0A2D60;}
	.st10{fill:#FF2C9C;}
	.st11{fill:#CE2974;}
	.st12{fill:#D32675;}
</style>
<g>
	<path class="st0" d="M182.8,246.1l-116-67c-3.3-1.9-2.9-5.2,0.9-7.4l79-45.6c3.8-2.2,9.5-2.4,12.8-0.5l116,67
		c3.3,1.9,2.9,5.2-0.9,7.4l-79,45.6C191.8,247.8,186.1,248,182.8,246.1z"/>
	<path class="st1" d="M302.6,74l-116-67c-1.3-0.8-2.7-0.9-3.9-0.5l0,0l-0.2,0.1c0,0,0,0-0.1,0l-4.2,1.6l3.8,1.8c0,0.1,0,0.1-0.1,0.2
		l-18.9,86c-0.9,4.3,0.9,9.3,4.2,11.2l113.2,65.3l-0.4,4.8l4.6-1.8c1.5-0.7,2.8-2.3,3.3-4.7l18.9-86C307.8,80.9,305.9,75.9,302.6,74
		z"/>
	<path class="st2" d="M302.6,74l-116-67c-1.3-0.8-2.7-0.9-3.9-0.5l0,0l-0.2,0.1c0,0,0,0-0.1,0l-4.2,1.6l3.8,1.8c0,0.1,0,0.1-0.1,0.2
		L169.6,67l56.7,44.2l80-32.6C305.5,76.6,304.3,74.9,302.6,74z"/>
	<path class="st3" d="M298.3,87.2l8.8-3.8c0.2-3.4-1.3-7-3.6-8.8l-14,5.9L298.3,87.2z"/>
	<path class="st4" d="M276.1,177.2l-116-67c-3.3-1.9-5.2-6.9-4.2-11.2l18.9-86c0.9-4.3,4.4-6.3,7.7-4.4l116,67
		c3.3,1.9,5.2,6.9,4.2,11.2l-18.9,86C282.8,177.1,279.4,179.1,276.1,177.2z"/>
	<path class="st5" d="M273.6,170.8l-109.1-62.9c-3-1.7-4.7-6.3-3.9-10.3l17.3-78.7c0.9-3.9,4-5.7,7-4L294,77.8
		c3,1.7,4.7,6.3,3.9,10.3l-17.3,78.7C279.7,170.7,276.6,172.5,273.6,170.8z"/>
	<path class="st1" d="M273.6,170.8l-109.1-62.9c-3-1.7-4.7-6.3-3.9-10.3l17.3-78.7c0.9-3.9,4-5.7,7-4L294,77.8
		c3,1.7,4.7,6.3,3.9,10.3l-17.3,78.7C279.7,170.7,276.6,172.5,273.6,170.8z"/>
	<path class="st1" d="M277.7,180.1l-15.9-2.1l-102.3-59.1c-3.3-1.9-9-1.7-12.8,0.5l-72.5,41.8l-9.6-1.3v5.4l0,0
		c-0.1,1.3,0.7,2.5,2.2,3.4l116,67c3.3,1.9,9,1.7,12.8-0.5l79-45.6c2.1-1.2,3.2-2.8,3.1-4.3l0,0V180.1z"/>
	<path class="st2" d="M200.8,142.8l-7.3-4.2h-79.9l-39.4,22.7l-9.6-1.3v5.4l0,0c-0.1,1.3,0.7,2.5,2.2,3.4l116,67
		c1.7,1,4.2,1.4,6.6,1.2L200.8,142.8z"/>
	<path class="st6" d="M68.9,160.6l-4.3-0.6v5.4l0,0c-0.1,1.3,0.7,2.5,2.2,3.4l2,1.2V160.6z"/>
	<path class="st3" d="M184,236.3c3.1,1.2,7.6,0.9,10.9-0.7v-12.1H184V236.3z"/>
	<path class="st4" d="M182.8,230.4l-116-67c-3.3-1.9-2.9-5.2,0.9-7.4l79-45.6c3.8-2.2,9.5-2.4,12.8-0.5l116,67
		c3.3,1.9,2.9,5.2-0.9,7.4l-79,45.6C191.8,232,186.1,232.3,182.8,230.4z"/>
	<path class="st5" d="M274.6,182.3l-79,45.6c-3.8,2.2-9.5,2.4-12.8,0.5l-116-67c-1.1-0.6-1.7-1.4-2-2.2c-0.5,1.6,0.1,3.1,2,4.2
		l116,67c3.3,1.9,9,1.7,12.8-0.5l79-45.6c2.5-1.5,3.6-3.4,3-5.2C277.2,180.2,276.2,181.3,274.6,182.3z"/>
	<g>
		<path class="st7" d="M116.2,141.2l-5.2-3c-0.4-0.2-0.4-0.7,0.1-0.9l6.2-3.6c0.5-0.3,1.2-0.3,1.6-0.1l5.2,3
			c0.4,0.2,0.4,0.7-0.1,0.9l-6.2,3.6C117.3,141.5,116.6,141.5,116.2,141.2z"/>
		<path class="st7" d="M124.3,145.9l-5.2-3c-0.4-0.2-0.4-0.7,0.1-0.9l6.2-3.6c0.5-0.3,1.2-0.3,1.6-0.1l5.2,3
			c0.4,0.2,0.4,0.7-0.1,0.9l-6.2,3.6C125.4,146.1,124.7,146.2,124.3,145.9z"/>
		<path class="st7" d="M132.4,150.6l-5.2-3c-0.4-0.2-0.4-0.7,0.1-0.9l6.2-3.6c0.5-0.3,1.2-0.3,1.6-0.1l5.2,3
			c0.4,0.2,0.4,0.7-0.1,0.9l-6.2,3.6C133.5,150.8,132.8,150.8,132.4,150.6z"/>
		<path class="st7" d="M143.6,146.7l-5.2-3c-0.4-0.2-0.4-0.7,0.1-0.9l5.2-3c0.5-0.3,1.2-0.3,1.6-0.1l5.2,3c0.4,0.2,0.4,0.7-0.1,0.9
			l-5.2,3C144.7,146.9,144,147,143.6,146.7z"/>
		<path class="st7" d="M151.7,151.4l-5.2-3c-0.4-0.2-0.4-0.7,0.1-0.9l5.2-3c0.5-0.3,1.2-0.3,1.6-0.1l5.2,3c0.4,0.2,0.4,0.7-0.1,0.9
			l-5.2,3C152.8,151.6,152.1,151.7,151.7,151.4z"/>
		<path class="st7" d="M159.8,156.1l-5.2-3c-0.4-0.2-0.4-0.7,0.1-0.9l5.2-3c0.5-0.3,1.2-0.3,1.6-0.1l5.2,3c0.4,0.2,0.4,0.7-0.1,0.9
			l-5.2,3C160.9,156.3,160.2,156.3,159.8,156.1z"/>
		<path class="st7" d="M167.9,160.8l-5.2-3c-0.4-0.2-0.4-0.7,0.1-0.9l5.2-3c0.5-0.3,1.2-0.3,1.6-0.1l5.2,3c0.4,0.2,0.4,0.7-0.1,0.9
			l-5.2,3C169,161,168.3,161,167.9,160.8z"/>
		<path class="st7" d="M176,165.4l-5.2-3c-0.4-0.2-0.4-0.7,0.1-0.9l5.2-3c0.5-0.3,1.2-0.3,1.6-0.1l5.2,3c0.4,0.2,0.4,0.7-0.1,0.9
			l-5.2,3C177.1,165.7,176.4,165.7,176,165.4z"/>
		<path class="st7" d="M184.1,170.1l-5.2-3c-0.4-0.2-0.4-0.7,0.1-0.9l5.2-3c0.5-0.3,1.2-0.3,1.6-0.1l5.2,3c0.4,0.2,0.4,0.7-0.1,0.9
			l-5.2,3C185.2,170.3,184.5,170.4,184.1,170.1z"/>
		<path class="st7" d="M192.2,174.8l-5.2-3c-0.4-0.2-0.4-0.7,0.1-0.9l5.2-3c0.5-0.3,1.2-0.3,1.6-0.1l5.2,3c0.4,0.2,0.4,0.7-0.1,0.9
			l-5.2,3C193.3,175,192.6,175,192.2,174.8z"/>
		<path class="st7" d="M200.3,179.5l-5.2-3c-0.4-0.2-0.4-0.7,0.1-0.9l5.2-3c0.5-0.3,1.2-0.3,1.6-0.1l5.2,3c0.4,0.2,0.4,0.7-0.1,0.9
			l-5.2,3C201.5,179.7,200.7,179.7,200.3,179.5z"/>
		<path class="st7" d="M208.4,184.2l-5.2-3c-0.4-0.2-0.4-0.7,0.1-0.9l5.2-3c0.5-0.3,1.2-0.3,1.6-0.1l5.2,3c0.4,0.2,0.4,0.7-0.1,0.9
			l-5.2,3C209.6,184.4,208.8,184.4,208.4,184.2z"/>
		<path class="st7" d="M216.5,188.8l-5.2-3c-0.4-0.2-0.4-0.7,0.1-0.9l5.2-3c0.5-0.3,1.2-0.3,1.6-0.1l5.2,3c0.4,0.2,0.4,0.7-0.1,0.9
			l-5.2,3C217.7,189.1,216.9,189.1,216.5,188.8z"/>
		<path class="st7" d="M155.5,144.5l-5.2-3c-0.4-0.2-0.4-0.7,0.1-0.9l5.2-3c0.5-0.3,1.2-0.3,1.6-0.1l5.2,3c0.4,0.2,0.4,0.7-0.1,0.9
			l-5.2,3C156.7,144.7,155.9,144.8,155.5,144.5z"/>
		<path class="st7" d="M147.3,139.8l-5.2-3c-0.4-0.2-0.4-0.7,0.1-0.9l5.2-3c0.5-0.3,1.2-0.3,1.6-0.1l5.2,3c0.4,0.2,0.4,0.7-0.1,0.9
			l-5.2,3C148.4,140,147.7,140,147.3,139.8z"/>
		<path class="st7" d="M139.1,135l-11.3-6.5c-0.4-0.2-0.4-0.7,0.1-0.9l5.2-3c0.5-0.3,1.2-0.3,1.6-0.1L146,131
			c0.4,0.2,0.4,0.7-0.1,0.9l-5.2,3C140.2,135.2,139.5,135.3,139.1,135z"/>
		<path class="st7" d="M144.8,129.2l-9.2-5.3c-0.4-0.2-0.4-0.7,0.1-0.9l5.2-3c0.5-0.3,1.2-0.3,1.6-0.1l9.2,5.3
			c0.4,0.2,0.4,0.7-0.1,0.9l-5.2,3C146,129.4,145.2,129.5,144.8,129.2z"/>
		<path class="st7" d="M163.6,149.2l-5.2-3c-0.4-0.2-0.4-0.7,0.1-0.9l5.2-3c0.5-0.3,1.2-0.3,1.6-0.1l5.2,3c0.4,0.2,0.4,0.7-0.1,0.9
			l-5.2,3C164.8,149.4,164,149.4,163.6,149.2z"/>
		<path class="st7" d="M171.7,153.9l-5.2-3c-0.4-0.2-0.4-0.7,0.1-0.9l5.2-3c0.5-0.3,1.2-0.3,1.6-0.1l5.2,3c0.4,0.2,0.4,0.7-0.1,0.9
			l-5.2,3C172.9,154.1,172.1,154.1,171.7,153.9z"/>
		<path class="st7" d="M179.8,158.6l-5.2-3c-0.4-0.2-0.4-0.7,0.1-0.9l5.2-3c0.5-0.3,1.2-0.3,1.6-0.1l5.2,3c0.4,0.2,0.4,0.7-0.1,0.9
			l-5.2,3C181,158.8,180.2,158.8,179.8,158.6z"/>
		<path class="st7" d="M187.9,163.2l-5.2-3c-0.4-0.2-0.4-0.7,0.1-0.9l5.2-3c0.5-0.3,1.2-0.3,1.6-0.1l5.2,3c0.4,0.2,0.4,0.7-0.1,0.9
			l-5.2,3C189.1,163.4,188.3,163.5,187.9,163.2z"/>
		<path class="st7" d="M196,167.9l-5.2-3c-0.4-0.2-0.4-0.7,0.1-0.9l5.2-3c0.5-0.3,1.2-0.3,1.6-0.1l5.2,3c0.4,0.2,0.4,0.7-0.1,0.9
			l-5.2,3C197.2,168.1,196.5,168.2,196,167.9z"/>
		<path class="st7" d="M204.1,172.6l-5.2-3c-0.4-0.2-0.4-0.7,0.1-0.9l5.2-3c0.5-0.3,1.2-0.3,1.6-0.1l5.2,3c0.4,0.2,0.4,0.7-0.1,0.9
			l-5.2,3C205.3,172.8,204.6,172.8,204.1,172.6z"/>
		<path class="st7" d="M212.2,177.3l-5.2-3c-0.4-0.2-0.4-0.7,0.1-0.9l5.2-3c0.5-0.3,1.2-0.3,1.6-0.1l5.2,3c0.4,0.2,0.4,0.7-0.1,0.9
			l-5.2,3C213.4,177.5,212.7,177.5,212.2,177.3z"/>
		<path class="st7" d="M220.3,181.9l-5.2-3c-0.4-0.2-0.4-0.7,0.1-0.9l5.2-3c0.5-0.3,1.2-0.3,1.6-0.1l5.2,3c0.4,0.2,0.4,0.7-0.1,0.9
			l-5.2,3C221.5,182.2,220.8,182.2,220.3,181.9z"/>
		<path class="st7" d="M228.4,186.6l-5.2-3c-0.4-0.2-0.4-0.7,0.1-0.9l5.2-3c0.5-0.3,1.2-0.3,1.6-0.1l5.2,3c0.4,0.2,0.4,0.7-0.1,0.9
			l-5.2,3C229.6,186.8,228.9,186.9,228.4,186.6z"/>
		<path class="st7" d="M242.8,194.9l-11.4-6.6c-0.4-0.2-0.4-0.7,0.1-0.9l5.2-3c0.5-0.3,1.2-0.3,1.6-0.1l11.4,6.6
			c0.4,0.2,0.4,0.7-0.1,0.9l-5.2,3C244,195.2,243.3,195.2,242.8,194.9z"/>
		<path class="st7" d="M258.6,185.8l-9.7-5.6c-0.4-0.2-0.4-0.7,0.1-0.9l5.2-3c0.5-0.3,1.2-0.3,1.6-0.1l9.7,5.6
			c0.4,0.2,0.4,0.7-0.1,0.9l-5.2,3C259.8,186,259,186.1,258.6,185.8z"/>
		<path class="st7" d="M177.8,148.3l-5.2-3c-0.4-0.2-0.4-0.7,0.1-0.9l5.2-3c0.5-0.3,1.2-0.3,1.6-0.1l5.2,3c0.4,0.2,0.4,0.7-0.1,0.9
			l-5.2,3C179,148.5,178.2,148.5,177.8,148.3z"/>
		<path class="st7" d="M169.5,143.5l-5.2-3c-0.4-0.2-0.4-0.7,0.1-0.9l5.2-3c0.5-0.3,1.2-0.3,1.6-0.1l5.2,3c0.4,0.2,0.4,0.7-0.1,0.9
			l-5.2,3C170.7,143.7,169.9,143.7,169.5,143.5z"/>
		<path class="st7" d="M161.2,138.7l-5.2-3c-0.4-0.2-0.4-0.7,0.1-0.9l5.2-3c0.5-0.3,1.2-0.3,1.6-0.1l5.2,3c0.4,0.2,0.4,0.7-0.1,0.9
			l-5.2,3C162.4,138.9,161.6,138.9,161.2,138.7z"/>
		<path class="st7" d="M152.9,133.9l-5.2-3c-0.4-0.2-0.4-0.7,0.1-0.9l5.2-3c0.5-0.3,1.2-0.3,1.6-0.1l5.2,3c0.4,0.2,0.4,0.7-0.1,0.9
			l-5.2,3C154.1,134.1,153.3,134.1,152.9,133.9z"/>
		<path class="st7" d="M185.9,153l-5.2-3c-0.4-0.2-0.4-0.7,0.1-0.9l5.2-3c0.5-0.3,1.2-0.3,1.6-0.1l5.2,3c0.4,0.2,0.4,0.7-0.1,0.9
			l-5.2,3C187.1,153.2,186.3,153.2,185.9,153z"/>
		<path class="st7" d="M194,157.6l-5.2-3c-0.4-0.2-0.4-0.7,0.1-0.9l5.2-3c0.5-0.3,1.2-0.3,1.6-0.1l5.2,3c0.4,0.2,0.4,0.7-0.1,0.9
			l-5.2,3C195.2,157.9,194.4,157.9,194,157.6z"/>
		<path class="st7" d="M202.1,162.3l-5.2-3c-0.4-0.2-0.4-0.7,0.1-0.9l5.2-3c0.5-0.3,1.2-0.3,1.6-0.1l5.2,3c0.4,0.2,0.4,0.7-0.1,0.9
			l-5.2,3C203.3,162.5,202.5,162.6,202.1,162.3z"/>
		<path class="st7" d="M210.2,167l-5.2-3c-0.4-0.2-0.4-0.7,0.1-0.9l5.2-3c0.5-0.3,1.2-0.3,1.6-0.1l5.2,3c0.4,0.2,0.4,0.7-0.1,0.9
			l-5.2,3C211.4,167.2,210.6,167.2,210.2,167z"/>
		<path class="st7" d="M218.3,171.7l-5.2-3c-0.4-0.2-0.4-0.7,0.1-0.9l5.2-3c0.5-0.3,1.2-0.3,1.6-0.1l5.2,3c0.4,0.2,0.4,0.7-0.1,0.9
			l-5.2,3C219.5,171.9,218.7,171.9,218.3,171.7z"/>
		<path class="st7" d="M226.4,176.4l-5.2-3c-0.4-0.2-0.4-0.7,0.1-0.9l5.2-3c0.5-0.3,1.2-0.3,1.6-0.1l5.2,3c0.4,0.2,0.4,0.7-0.1,0.9
			l-5.2,3C227.6,176.6,226.8,176.6,226.4,176.4z"/>
		<path class="st7" d="M234.5,181l-5.2-3c-0.4-0.2-0.4-0.7,0.1-0.9l5.2-3c0.5-0.3,1.2-0.3,1.6-0.1l5.2,3c0.4,0.2,0.4,0.7-0.1,0.9
			l-5.2,3C235.7,181.2,234.9,181.3,234.5,181z"/>
		<path class="st7" d="M242.6,185.7l-5.2-3c-0.4-0.2-0.4-0.7,0.1-0.9l5.2-3c0.5-0.3,1.2-0.3,1.6-0.1l5.2,3c0.4,0.2,0.4,0.7-0.1,0.9
			l-5.2,3C243.8,185.9,243.1,186,242.6,185.7z"/>
		<path class="st7" d="M250.7,190.4l-5.2-3c-0.4-0.2-0.4-0.7,0.1-0.9l5.2-3c0.5-0.3,1.2-0.3,1.6-0.1l5.2,3c0.4,0.2,0.4,0.7-0.1,0.9
			l-5.2,3C251.9,190.6,251.2,190.6,250.7,190.4z"/>
		<path class="st7" d="M173.5,136.7l-5.2-3c-0.4-0.2-0.4-0.7,0.1-0.9l5.2-3c0.5-0.3,1.2-0.3,1.6-0.1l5.2,3c0.4,0.2,0.4,0.7-0.1,0.9
			l-5.2,3C174.7,136.9,174,137,173.5,136.7z"/>
		<path class="st7" d="M165.5,132.1l-5.2-3c-0.4-0.2-0.4-0.7,0.1-0.9l5.2-3c0.5-0.3,1.2-0.3,1.6-0.1l5.2,3c0.4,0.2,0.4,0.7-0.1,0.9
			l-5.2,3C166.6,132.3,165.9,132.3,165.5,132.1z"/>
		<path class="st7" d="M157.4,127.4l-5.2-3c-0.4-0.2-0.4-0.7,0.1-0.9l5.2-3c0.5-0.3,1.2-0.3,1.6-0.1l5.2,3c0.4,0.2,0.4,0.7-0.1,0.9
			l-5.2,3C158.6,127.6,157.8,127.6,157.4,127.4z"/>
		<path class="st7" d="M149.4,122.7l-5.2-3c-0.4-0.2-0.4-0.7,0.1-0.9l5.2-3c0.5-0.3,1.2-0.3,1.6-0.1l5.2,3c0.4,0.2,0.4,0.7-0.1,0.9
			l-5.2,3C150.5,123,149.8,123,149.4,122.7z"/>
		<path class="st7" d="M157.6,118l-5.2-3c-0.4-0.2-0.4-0.7,0.1-0.9l1.7-1c0.5-0.3,1.2-0.3,1.6-0.1l5.2,3c0.4,0.2,0.4,0.7-0.1,0.9
			l-1.7,1C158.8,118.2,158.1,118.2,157.6,118z"/>
		<path class="st7" d="M168.2,124l-5.2-3c-0.4-0.2-0.4-0.7,0.1-0.9l1.7-1c0.5-0.3,1.2-0.3,1.6-0.1l5.2,3c0.4,0.2,0.4,0.7-0.1,0.9
			l-1.7,1C169.3,124.2,168.6,124.3,168.2,124z"/>
		<path class="st7" d="M176.2,128.7l-5.2-3c-0.4-0.2-0.4-0.7,0.1-0.9l1.7-1c0.5-0.3,1.2-0.3,1.6-0.1l5.2,3c0.4,0.2,0.4,0.7-0.1,0.9
			l-1.7,1C177.4,128.9,176.6,128.9,176.2,128.7z"/>
		<path class="st7" d="M184.2,133.3l-5.2-3c-0.4-0.2-0.4-0.7,0.1-0.9l1.7-1c0.5-0.3,1.2-0.3,1.6-0.1l5.2,3c0.4,0.2,0.4,0.7-0.1,0.9
			l-1.7,1C185.4,133.5,184.6,133.5,184.2,133.3z"/>
		<path class="st7" d="M192.3,137.9l-5.2-3c-0.4-0.2-0.4-0.7,0.1-0.9l1.7-1c0.5-0.3,1.2-0.3,1.6-0.1l5.2,3c0.4,0.2,0.4,0.7-0.1,0.9
			l-1.7,1C193.4,138.2,192.7,138.2,192.3,137.9z"/>
		<path class="st7" d="M237.1,163.8l-5.2-3c-0.4-0.2-0.4-0.7,0.1-0.9l1.7-1c0.5-0.3,1.2-0.3,1.6-0.1l5.2,3c0.4,0.2,0.4,0.7-0.1,0.9
			l-1.7,1C238.2,164,237.5,164.1,237.1,163.8z"/>
		<path class="st7" d="M245.1,168.5l-5.2-3c-0.4-0.2-0.4-0.7,0.1-0.9l1.7-1c0.5-0.3,1.2-0.3,1.6-0.1l5.2,3c0.4,0.2,0.4,0.7-0.1,0.9
			l-1.7,1C246.3,168.7,245.5,168.7,245.1,168.5z"/>
		<path class="st7" d="M253.1,173.1l-5.2-3c-0.4-0.2-0.4-0.7,0.1-0.9l1.7-1c0.5-0.3,1.2-0.3,1.6-0.1l5.2,3c0.4,0.2,0.4,0.7-0.1,0.9
			l-1.7,1C254.3,173.3,253.6,173.3,253.1,173.1z"/>
		<path class="st7" d="M261.2,177.7l-5.2-3c-0.4-0.2-0.4-0.7,0.1-0.9l1.7-1c0.5-0.3,1.2-0.3,1.6-0.1l5.2,3c0.4,0.2,0.4,0.7-0.1,0.9
			l-1.7,1C262.3,177.9,261.6,178,261.2,177.7z"/>
		<path class="st7" d="M181.6,141.4l-5.2-3c-0.4-0.2-0.4-0.7,0.1-0.9l5.2-3c0.5-0.3,1.2-0.3,1.6-0.1l5.2,3c0.4,0.2,0.4,0.7-0.1,0.9
			l-5.2,3C182.8,141.6,182.1,141.6,181.6,141.4z"/>
		<path class="st7" d="M189.7,146.1l-5.2-3c-0.4-0.2-0.4-0.7,0.1-0.9l5.2-3c0.5-0.3,1.2-0.3,1.6-0.1l5.2,3c0.4,0.2,0.4,0.7-0.1,0.9
			l-5.2,3C190.9,146.3,190.2,146.3,189.7,146.1z"/>
		<path class="st7" d="M197.8,150.7l-5.2-3c-0.4-0.2-0.4-0.7,0.1-0.9l5.2-3c0.5-0.3,1.2-0.3,1.6-0.1l5.2,3c0.4,0.2,0.4,0.7-0.1,0.9
			l-5.2,3C199,151,198.3,151,197.8,150.7z"/>
		<path class="st7" d="M206,155.4l-5.2-3c-0.4-0.2-0.4-0.7,0.1-0.9l5.2-3c0.5-0.3,1.2-0.3,1.6-0.1l5.2,3c0.4,0.2,0.4,0.7-0.1,0.9
			l-5.2,3C207.1,155.6,206.4,155.7,206,155.4z"/>
		<path class="st7" d="M214.1,160.1l-5.2-3c-0.4-0.2-0.4-0.7,0.1-0.9l5.2-3c0.5-0.3,1.2-0.3,1.6-0.1l5.2,3c0.4,0.2,0.4,0.7-0.1,0.9
			l-5.2,3C215.2,160.3,214.5,160.3,214.1,160.1z"/>
		<path class="st7" d="M222.2,164.8l-5.2-3c-0.4-0.2-0.4-0.7,0.1-0.9l5.2-3c0.5-0.3,1.2-0.3,1.6-0.1l5.2,3c0.4,0.2,0.4,0.7-0.1,0.9
			l-5.2,3C223.3,165,222.6,165,222.2,164.8z"/>
		<path class="st7" d="M230.3,169.5l-5.2-3c-0.4-0.2-0.4-0.7,0.1-0.9l5.2-3c0.5-0.3,1.2-0.3,1.6-0.1l5.2,3c0.4,0.2,0.4,0.7-0.1,0.9
			l-5.2,3C231.4,169.7,230.7,169.7,230.3,169.5z"/>
		<path class="st7" d="M238.4,174.1l-5.2-3c-0.4-0.2-0.4-0.7,0.1-0.9l5.2-3c0.5-0.3,1.2-0.3,1.6-0.1l5.2,3c0.4,0.2,0.4,0.7-0.1,0.9
			l-5.2,3C239.5,174.4,238.8,174.4,238.4,174.1z"/>
		<path class="st7" d="M246.5,178.8l-5.2-3c-0.4-0.2-0.4-0.7,0.1-0.9l5.2-3c0.5-0.3,1.2-0.3,1.6-0.1l5.2,3c0.4,0.2,0.4,0.7-0.1,0.9
			l-5.2,3C247.6,179,246.9,179.1,246.5,178.8z"/>
		<path class="st7" d="M135.3,142l-15.5-8.9c-0.4-0.2-0.4-0.7,0.1-0.9l5.2-3c0.5-0.3,1.2-0.3,1.6-0.1l15.5,8.9
			c0.4,0.2,0.4,0.7-0.1,0.9l-5.2,3C136.5,142.2,135.7,142.2,135.3,142z"/>
		<path class="st7" d="M234.9,199.4l-15.5-8.9c-0.4-0.2-0.4-0.7,0.1-0.9l5.2-3c0.5-0.3,1.2-0.3,1.6-0.1l15.5,8.9
			c0.4,0.2,0.4,0.7-0.1,0.9l-5.2,3C236,199.7,235.3,199.7,234.9,199.4z"/>
		<path class="st7" d="M202.5,191.1l-5.2-3c-0.4-0.2-0.4-0.7,0.1-0.9l6.2-3.6c0.5-0.3,1.2-0.3,1.6-0.1l5.2,3
			c0.4,0.2,0.4,0.7-0.1,0.9l-6.2,3.6C203.6,191.3,202.9,191.3,202.5,191.1z"/>
		<path class="st7" d="M143.6,157.1l-8.4-4.8c-0.4-0.2-0.4-0.7,0.1-0.9l6.2-3.6c0.5-0.3,1.2-0.3,1.6-0.1l8.4,4.8
			c0.4,0.2,0.4,0.7-0.1,0.9l-6.2,3.6C144.8,157.3,144,157.3,143.6,157.1z"/>
		<path class="st7" d="M194.7,186.6l-8.4-4.8c-0.4-0.2-0.4-0.7,0.1-0.9l6.2-3.6c0.5-0.3,1.2-0.3,1.6-0.1l8.4,4.8
			c0.4,0.2,0.4,0.7-0.1,0.9l-6.2,3.6C195.8,186.8,195.1,186.8,194.7,186.6z"/>
		<path class="st7" d="M155.3,163.8l-8.4-4.8c-0.4-0.2-0.4-0.7,0.1-0.9l6.2-3.6c0.5-0.3,1.2-0.3,1.6-0.1l8.4,4.8
			c0.4,0.2,0.4,0.7-0.1,0.9l-6.2,3.6C156.5,164.1,155.7,164.1,155.3,163.8z"/>
		<path class="st7" d="M154.9,154.4l36.5,21.1c0.5,0.3,0.5,0.7,0,0.9l-6.3,3.6c-0.5,0.3-1.2,0.3-1.6,0L147,159L154.9,154.4z"/>
		<path class="st7" d="M225.1,199.5l5.8,3.4c0.3,0.2,0.3,0.5-0.1,0.8l-2.5,1.5c-0.4,0.2-1,0.3-1.3,0.1l-5.8-3.4
			c-0.3-0.2-0.3-0.5,0.1-0.8l2.5-1.5C224.2,199.4,224.8,199.3,225.1,199.5z"/>
		<path class="st7" d="M216.9,194.8l5.8,3.4c0.3,0.2,0.3,0.5-0.1,0.8l-2.5,1.5c-0.4,0.2-1,0.3-1.3,0.1l-5.8-3.4
			c-0.3-0.2-0.3-0.5,0.1-0.8l2.5-1.5C216,194.7,216.6,194.6,216.9,194.8z"/>
		<path class="st7" d="M208.8,190.2l5.8,3.4c0.3,0.2,0.3,0.5-0.1,0.8l-2.5,1.5c-0.4,0.2-1,0.3-1.3,0.1l-5.8-3.4
			c-0.3-0.2-0.3-0.5,0.1-0.8l2.5-1.5C207.9,190,208.5,190,208.8,190.2z"/>
		<path class="st7" d="M221.4,192.2l5.8,3.4c0.3,0.2,0.3,0.5-0.1,0.8l-2.5,1.5c-0.4,0.2-1,0.3-1.3,0.1l-5.8-3.4
			c-0.3-0.2-0.3-0.5,0.1-0.8l2.5-1.5C220.5,192.1,221.1,192,221.4,192.2z"/>
	</g>
	<g>
		<polygon class="st6" points="267,83.5 214.3,53.1 214.9,49.6 267.6,80.1 		"/>
		<polygon class="st6" points="248.1,89.3 211.3,68 212,64.6 248.8,85.9 		"/>
		<polygon class="st5" points="244.6,78.9 212.8,60.6 213.5,57.1 245.3,75.5 		"/>
		<polygon class="st8" points="265.5,91 249.6,81.8 250.2,78.4 266.2,87.6 		"/>
	</g>
</g>
<polygon class="st9" points="266.5,117.2 257.2,161.3 223.7,142 231,127.7 "/>
<path class="st6" d="M162.9,185L162.9,185c-9.3-5.4-9.3-18.8,0-24.2l46.7-27l47.5,27.4L216.1,185C199.6,194.5,179.4,194.5,162.9,185
	z"/>
<polygon class="st4" points="205.8,48.5 189.3,39 190,35.5 206.5,45 "/>
<polygon class="st5" points="204.3,56 187.9,46.5 188.6,43 205,52.5 "/>
<g>
	<path class="st6" d="M62.3,136.5L62.3,136.5c-7.5-4.2-12.2-13.3-12.2-26.4C50,84.1,68.2,52.4,90.6,39.3l16.2-9.4l0,0l0,0l0,0
		l0.8,0.4l74.2,41.7L163,84.3l-7.1,5.2l-9.7,10.2l-1.6,1.4l-10.3,15.7l-3.8,9.8l-2.8,7.8l-2.3,16.4l-0.2,1.4l0.8,6.9l2.4,8.5
		l3.4,5.8l4.9,5.8L62.3,136.5z"/>
	<path class="st4" d="M192.2,71.8l0,2.7L143,103.1c0.8-1.9,2.4-3.5,4-5.1L192.2,71.8z"/>
	<polygon class="st4" points="266.5,114.4 192.2,71.8 147.3,98.8 141.7,105.3 133.2,120.2 127.9,135 126.2,146.6 126,158.2 
		133.2,174.8 142.6,180.3 152.3,180.8 164,175.9 255.9,121.9 	"/>
	<path class="st2" d="M62.3,136.5C56,133,51.7,126,50.5,116.1l75.7,43.4l2.3,8.1l3.4,5.8l4.9,5.8L62.3,136.5L62.3,136.5z"/>
	<g>
		<path class="st1" d="M50.8,118c-0.4-2.5-0.7-5.1-0.7-8c0-1.9,0.1-3.9,0.3-5.8l75.5,43.3l-0.5,3.3l-0.2,1.4l0.8,6.9l0.7,2.5
			L50.8,118z"/>
		<path class="st1" d="M266.5,117.2l0-2.7l-101.3,58.9c-21.1,12.3-38.4,2.4-38.4-22c-0.1-24.4,17-54.3,38.2-66.6l17-9.9l0-2.7
			l-17,9.9c-22.4,13-40.6,44.8-40.5,70.7c0.1,25.9,18.4,36.4,40.8,23.4L266.5,117.2z"/>
	</g>
</g>
<g>
	<polygon class="st6" points="226,122.4 180.4,95.8 177.5,97.5 223.2,124.1 	"/>
	<polygon class="st6" points="224.8,107.3 192.9,88.7 190,90.3 221.9,108.9 	"/>
	<polygon class="st6" points="214.2,108.3 186.6,92.3 183.8,93.9 211.3,110 	"/>
	<polygon class="st6" points="232.3,118.9 218.5,110.8 215.6,112.5 229.4,120.5 	"/>
</g>
<g>
	<path class="st0" d="M222.1,261.6l98.4-56.9c2.4-1.4,2.1-3.8-0.7-5.4l0,0c-2.8-1.6-6.9-1.8-9.3-0.4l-98.4,56.9
		c-2.4,1.4-2.1,3.8,0.7,5.4l0,0C215.6,262.8,219.7,263,222.1,261.6z"/>
	<g>
		<path class="st10" d="M328.6,185.3L328.6,185.3c-0.1-0.1-0.2-0.2-0.4-0.2l-5.2,1.1l2,3.5l3.6-4
			C328.7,185.6,328.7,185.4,328.6,185.3z"/>
		<g>
			<path class="st6" d="M326.5,187.8c0-0.8-0.5-1.7-1.2-2.1c-0.3-0.2-0.6-0.2-0.8-0.1c-6-0.1-12,1.4-17.2,4.4l-0.4,0.2l6.4,11.1
				l1.9-1.3c4.1-2.7,7.5-6.2,10.1-10.3l0.8-1.3C326.4,188.4,326.5,188.2,326.5,187.8z"/>
			<path class="st6" d="M314.7,198.5c0-2.9-2-6.4-4.5-7.9s-4.5-0.3-4.5,2.6c0,2.9,2,6.4,4.5,7.9
				C312.6,202.6,314.7,201.4,314.7,198.5z"/>
			<polygon class="st6" points="274.5,225.1 313.3,201.4 306.9,190.3 267,211.9 			"/>
			<path class="st4" d="M276.1,221.6c0-3.4-2.4-7.6-5.3-9.3c-3-1.7-5.4-0.3-5.4,3.1c0,3.4,2.4,7.6,5.3,9.3
				C273.7,226.4,276.1,225,276.1,221.6z"/>
		</g>
		<g>
			<path class="st4" d="M273.9,222.9c0-3.4-2.4-7.6-5.3-9.3c-3-1.7-5.4-0.3-5.4,3.1c0,3.4,2.4,7.6,5.3,9.3
				C271.5,227.7,273.9,226.3,273.9,222.9z"/>
			
				<rect x="213.3" y="226.9" transform="matrix(0.8671 -0.4982 0.4982 0.8671 -84.5457 152.1877)" class="st4" width="59.2" height="15.1"/>
			<path class="st4" d="M222.6,252.4c0-3.4-2.4-7.6-5.3-9.3c-3-1.7-5.4-0.3-5.4,3.1c0,3.4,2.4,7.6,5.3,9.3
				C220.2,257.2,222.6,255.8,222.6,252.4z"/>
			<path class="st2" d="M220.7,251.3c-0.1-2-1.7-4.5-3.6-5.6c-1.9-1.1-3.4-0.4-3.3,1.7s1.7,4.5,3.6,5.6
				C219.3,254,220.8,253.3,220.7,251.3z"/>
		</g>
		<g>
			<path class="st5" d="M276.5,221.4c0-3.4-2.4-7.6-5.3-9.3c-1.2-0.7-2.3-0.9-3.2-0.6c1-1,2.6-1.1,4.3-0.1c3,1.7,5.3,5.9,5.3,9.3
				c0,2-0.9,3.3-2.2,3.7C276.1,223.8,276.5,222.7,276.5,221.4z"/>
			<path class="st6" d="M276.5,221.4c0-3.4-2.4-7.6-5.3-9.3c-1.5-0.9-2.8-0.9-3.8-0.4l-2.9,1.7l1.4,2.4c0.2,3.1,2.3,6.7,4.8,8.4
				l1.4,2.4l2.9-1.7l0,0C275.9,224.3,276.5,223.1,276.5,221.4z"/>
			<path class="st4" d="M273.6,223.1c0-3.4-2.4-7.6-5.3-9.3c-3-1.7-5.4-0.3-5.4,3.1c0,3.4,2.4,7.6,5.3,9.3
				C271.2,227.9,273.6,226.5,273.6,223.1z"/>
		</g>
		<g>
			<path class="st8" d="M218.3,252.7l-3.3-5.7l-10.9,6.2c-1.6,0.9-2.1,2.9-1.2,4.5l0,0c0.9,1.6,2.9,2.1,4.5,1.2L218.3,252.7z"/>
			<path class="st10" d="M219,251.2c0-1.5-1-3.3-2.3-4c-1.3-0.7-2.3-0.1-2.3,1.3c0,1.5,1,3.3,2.3,4S218.9,252.7,219,251.2z"/>
		</g>
		<g>
			<path class="st6" d="M231.2,231.5l-1.6-0.9c-0.9-0.5-2.2-0.4-3.5,0.3l-5.6,3.2c-1.1,0.6-1.9,2.1-1.9,3.3l0,2.8
				c0,0.5-0.2,1-0.6,1.4l0.2,1.3l-1.4-0.8l0,0c-0.2-0.1-0.3-0.3-0.3-0.7l0-2.8c0-2.5,1.8-5.6,4-6.9l5.6-3.2c1.9-1.1,3.6-1.2,4.9-0.5
				l1.6,0.9c0.9,0.5,2.2,0.4,3.5-0.3l22.5-12.9c0.3-0.2,0.6-0.2,0.7-0.1l0,0l1.4,0.8l-1.2,0.4c-0.2,0.5-0.5,1-0.9,1.2L236.1,231
				C234.2,232.1,232.5,232.2,231.2,231.5z"/>
			<path class="st6" d="M230.9,231.4c-0.9-0.5-2.2-0.4-3.5,0.3l-5.6,3.2c-1.1,0.6-1.9,2.1-1.9,3.3l0,2.8c0,0.7-0.5,1.5-1,1.8
				c-0.6,0.3-1,0.1-1-0.6l0-2.8c0-2.5,1.8-5.6,4-6.9l5.6-3.2c1.9-1.1,3.6-1.2,4.9-0.5l1.6,0.9c0.9,0.5,2.2,0.4,3.5-0.3l22.5-12.9
				c0.6-0.3,1-0.1,1,0.6c0,0.7-0.5,1.5-1,1.8l-22.5,12.9c-1.9,1.1-3.6,1.2-4.9,0.5L230.9,231.4z"/>
			<g>
				<path class="st5" d="M219.9,238.7l0,2.8c0,0,0,0,0,0.1c0.1-0.2,0.1-0.3,0.1-0.5l0-2.8c0-0.1,0-0.2,0-0.2
					C219.9,238.2,219.9,238.4,219.9,238.7z"/>
			</g>
		</g>
	</g>
	<path class="st0" d="M209.4,266.1l10.3-5.9c1.2-0.7,1.1-2-0.3-2.8l0,0c-1.4-0.8-3.6-0.9-4.8-0.2l-10.3,5.9c-1.2,0.7-1.1,2,0.3,2.8
		h0C205.9,266.8,208.1,266.9,209.4,266.1z"/>
</g>
<g>
	<polygon class="st0" points="13.8,156.9 0,149 13.8,141 27.5,149 	"/>
	<polygon class="st11" points="27.5,140 13.8,147.9 13.8,132 27.5,124.1 	"/>
	<polygon class="st8" points="13.8,132 0,124.1 13.8,116.1 27.5,124.1 	"/>
	<polygon class="st8" points="13.8,147.9 0,140 0,124.1 13.8,132 	"/>
</g>
<g>
	<polygon class="st0" points="328.8,159.8 313.5,151 328.8,142.1 344.2,151 	"/>
	<polygon class="st1" points="344.2,140.9 328.8,149.8 328.8,132.1 344.2,123.2 	"/>
	<polygon class="st4" points="328.8,132.1 313.5,123.2 328.8,114.4 344.2,123.2 	"/>
	<polygon class="st6" points="328.8,149.8 313.5,140.9 313.5,123.2 328.8,132.1 	"/>
</g>
<g>
	<polygon class="st0" points="109,265.2 93.7,256.3 109,247.5 124.4,256.3 	"/>
	<polygon class="st1" points="124.4,246.3 109,255.1 109,237.4 124.4,228.6 	"/>
	<polygon class="st4" points="109,237.4 93.7,228.6 109,219.7 124.4,228.6 	"/>
	<polygon class="st6" points="109,255.1 93.7,246.3 93.7,228.6 109,237.4 	"/>
</g>
<g>
	<g>
		<ellipse class="st6" cx="163.4" cy="128.9" rx="23.3" ry="13.4"/>
		<path class="st12" d="M186.7,122v-4.3h-1.2c-1.1-1.9-3-3.7-5.6-5.2c-9.1-5.3-23.8-5.3-32.9,0c-2.6,1.5-4.5,3.3-5.6,5.2h-1.2v4.2h0
			c0,3.5,2.3,6.9,6.8,9.5c9.1,5.3,23.8,5.3,32.9,0C184.4,128.9,186.7,125.4,186.7,122z"/>
		<ellipse class="st8" cx="163.4" cy="117.7" rx="23.3" ry="13.4"/>
		<path class="st5" d="M179.8,127.2c-9.1,5.3-23.8,5.3-32.9,0c-4.4-2.5-6.6-5.8-6.8-9.1c-0.2,3.6,2.1,7.2,6.8,9.9
			c9.1,5.3,23.8,5.3,32.9,0c4.7-2.7,7-6.4,6.8-9.9C186.4,121.4,184.2,124.7,179.8,127.2z"/>
	</g>
	<g>
		<path class="st5" d="M152.1,122.2c-0.4-0.2-0.6-0.5-0.6-0.9l0-8.8c0-0.7,0.9-1.2,2.1-1.2c1.2,0,2.1,0.5,2.1,1.2l0,7.3l21.1-2.6
			c1.1-0.1,2.2,0.3,2.5,0.9c0.2,0.7-0.5,1.3-1.6,1.4l-23.6,2.9c-0.6,0.1-1.3,0-1.8-0.2C152.2,122.2,152.2,122.2,152.1,122.2z"/>
	</g>
</g>
<g>
	<path class="st8" d="M265.3,96.8c-0.4,0.9-1.5,1.2-2.3,0.7c-0.9-0.5-1.3-1.7-0.8-2.6c0.4-0.9,1.5-1.2,2.3-0.7
		C265.4,94.8,265.7,95.9,265.3,96.8z"/>
	<path class="st5" d="M271,100.1c-0.4,0.9-1.5,1.2-2.3,0.7c-0.9-0.5-1.3-1.7-0.8-2.6s1.5-1.2,2.3-0.7C271,98,271.4,99.2,271,100.1z"
		/>
	<path class="st4" d="M276.6,103.3c-0.4,0.9-1.5,1.2-2.3,0.7c-0.9-0.5-1.3-1.7-0.8-2.6s1.5-1.2,2.3-0.7
		C276.6,101.3,277,102.4,276.6,103.3z"/>
	<path class="st8" d="M282.2,106.6c-0.4,0.9-1.5,1.2-2.3,0.7c-0.9-0.5-1.3-1.7-0.8-2.6c0.4-0.9,1.5-1.2,2.3-0.7
		C282.3,104.5,282.6,105.7,282.2,106.6z"/>
</g>
<path class="st1" d="M107.6,30.4l-0.8-0.4l0,0l0,0l-16.2,9.4c-5.3,3.1-10.4,7.2-15,12.1l27.7,16l34.6-20L107.6,30.4z"/>
<g>
	<g>
		<g>
			<path class="st8" d="M137.2,30.8l-5-2.9l18.5-10.7c0.9-0.5,0.9-1.3,0-1.8L131.7,4.5c-0.9-0.5-2.3-0.5-3.2,0L110,15.2l-5-2.9
				l18.5-10.7c3.6-2.1,9.6-2.1,13.2,0l18.9,10.9c3.6,2.1,3.6,5.5,0,7.6L137.2,30.8z"/>
		</g>
		<g>
			<path class="st4" d="M145.3,32.1c0-2.7-1.6-5.8-3.6-7L108.1,5.8c-0.9-0.5-1.7-0.6-2.4-0.2l0,0L65.6,28.9l38.8,29.2l39.5-22.9
				c0.1-0.1,0.2-0.1,0.3-0.2l0,0l0,0C144.9,34.4,145.3,33.5,145.3,32.1z"/>
			<path class="st6" d="M104.4,58.1l39.5-22.9c0.1-0.1,0.2-0.1,0.3-0.2l0,0v0c0.7-0.5,1.1-1.5,1.1-2.8c0-1.3-0.4-2.7-1-3.9l-45,26
				L104.4,58.1z"/>
			<path class="st6" d="M101.8,58L68.3,38.6c-2-1.2-3.6-4.3-3.6-7l0,0c0-2.7,1.6-3.9,3.6-2.8l33.6,19.4c2,1.2,3.6,4.3,3.6,7l0,0
				C105.5,57.9,103.9,59.1,101.8,58z"/>
			<path class="st5" d="M102.3,48L68.7,28.7c-0.9-0.5-1.8-0.6-2.4-0.2c0.6-0.2,1.3-0.1,2,0.4l33.6,19.4c2,1.2,3.6,4.3,3.6,7v0
				c0,1.5-0.5,2.5-1.2,2.9c1-0.3,1.6-1.4,1.6-3.1v0C105.9,52.3,104.3,49.2,102.3,48z"/>
		</g>
		<path class="st5" d="M96.8,51.4l-4-2.3c-0.4-0.2-0.7-0.9-0.7-1.4l0,0c0-0.5,0.3-0.8,0.7-0.5l4,2.3c0.4,0.2,0.7,0.9,0.7,1.4l0,0
			C97.5,51.4,97.2,51.7,96.8,51.4z"/>
	</g>
	<g>
		<path class="st6" d="M101.4,23.9c1.2-0.7,1.2-1.9,0-2.6c-1.2-0.7-3.2-0.7-4.4,0c-1.2,0.7-1.2,1.9,0,2.6
			C98.2,24.6,100.2,24.6,101.4,23.9z"/>
		<path class="st5" d="M108.1,27.7c1.2-0.7,1.2-1.9,0-2.6c-1.2-0.7-3.2-0.7-4.4,0c-1.2,0.7-1.2,1.9,0,2.6
			C104.9,28.4,106.9,28.4,108.1,27.7z"/>
		<path class="st5" d="M114.9,31.5c1.2-0.7,1.2-1.9,0-2.6c-1.2-0.7-3.2-0.7-4.4,0c-1.2,0.7-1.2,1.9,0,2.6
			C111.7,32.2,113.7,32.2,114.9,31.5z"/>
	</g>
</g>
<g>
	<path class="st0" d="M34.8,235L4.1,217.3c-1.9-1.1-1.6-3,0.5-4.2l29.6-17.1c2.2-1.3,5.5-1.4,7.4-0.3l30.7,17.7
		c1.9,1.1,1.6,3-0.5,4.2l-29.6,17.1C40,235.9,36.7,236.1,34.8,235z"/>
	<path class="st2" d="M73.6,204.7L73.6,204.7v-10.6l-23.8,0l-8.2-4.7c-1.9-1.1-5.2-1-7.4,0.3l-7.7,4.4l-23.8,0V205
		c-0.1,0.7,0.4,1.4,1.3,2l30.7,17.7c1.9,1.1,5.2,1,7.4-0.3l29.6-17.1C73.1,206.6,73.7,205.6,73.6,204.7z"/>
	<path class="st2" d="M38.2,188.7c-1.4,0-2.8,0.4-3.9,1l-7.7,4.4l-23.8,0V205c-0.1,0.7,0.4,1.4,1.3,2l30.7,17.7
		c0.9,0.5,2.1,0.8,3.4,0.7V188.7z"/>
	<path class="st6" d="M5.5,194.1l-2.7,0V205c-0.1,0.7,0.4,1.4,1.3,2l1.4,0.8V194.1z"/>
	<path class="st6" d="M35.3,224.9c1.6,0.7,4,0.7,5.9-0.1v-12.4h-5.9V224.9z"/>
	<path class="st4" d="M34.8,213.8L4.1,196.1c-1.9-1.1-1.6-3,0.5-4.2l29.6-17.1c2.2-1.3,5.5-1.4,7.4-0.3l30.7,17.7
		c1.9,1.1,1.6,3-0.5,4.2l-29.6,17.1C40,214.8,36.7,214.9,34.8,213.8z"/>
	<path class="st5" d="M71.8,194.3l-29.6,17.1c-2.2,1.3-5.5,1.4-7.4,0.3L4.1,194c-0.4-0.2-0.7-0.5-0.9-0.8c-0.6,1-0.4,2.2,0.9,2.9
		l30.7,17.7c1.9,1.1,5.2,1,7.4-0.3l29.6-17.1c1.7-1,2.2-2.3,1.5-3.4C73,193.5,72.5,193.9,71.8,194.3z"/>
	<g>
		<path class="st4" d="M62.3,207.5c0,0.8-0.6,1.8-1.2,2.1c-0.7,0.4-1.2,0.1-1.2-0.7c0-0.8,0.6-1.8,1.2-2.1
			C61.7,206.4,62.3,206.7,62.3,207.5z"/>
		<path class="st4" d="M66.3,205.2c0,0.8-0.6,1.8-1.2,2.1c-0.7,0.4-1.2,0.1-1.2-0.7c0-0.8,0.6-1.8,1.2-2.1
			C65.7,204.1,66.3,204.4,66.3,205.2z"/>
		<path class="st4" d="M70.3,202.9c0,0.8-0.6,1.8-1.2,2.1c-0.7,0.4-1.2,0.1-1.2-0.7s0.6-1.8,1.2-2.1
			C69.7,201.8,70.3,202.1,70.3,202.9z"/>
	</g>
	<g>
		<path class="st6" d="M36.6,202.9l-14.4-8.3c-0.9-0.5-0.8-1.4,0.2-2l13.9-8c1-0.6,2.6-0.7,3.4-0.1l14.4,8.3c0.9,0.5,0.8,1.4-0.2,2
			l-13.9,8C39,203.3,37.5,203.4,36.6,202.9z"/>
		<path class="st4" d="M38,195.9l-2-1.1c-0.1-0.1-0.1-0.2,0-0.3l1.9-1.1c0.1-0.1,0.4-0.1,0.5,0l2,1.1c0.1,0.1,0.1,0.2,0,0.3
			l-1.9,1.1C38.3,196,38.1,196,38,195.9z"/>
		<path class="st2" d="M22.3,194.6L22.3,194.6c0.1,0,0.2-0.1,0.2-0.1l13.9-8c1-0.6,2.6-0.7,3.4-0.1l14.3,8.3c0.8-0.6,0.9-1.4,0-1.8
			l-14.4-8.3c-0.9-0.5-2.4-0.4-3.4,0.1l-13.9,8C21.5,193.2,21.4,194.1,22.3,194.6z"/>
	</g>
</g>
</svg>
