<svg xmlns="http://www.w3.org/2000/svg" width="109.259" height="42.263" viewBox="0 0 109.259 42.263">
  <path id="logo-8fd84953cb071edcddf16ab97cddf5ebbe6b9eb9b6e967586251918d6acba817" d="M85.043,23.976a1.223,1.223,0,0,1-1.277-1.4V18.329H86.5v-2.1H83.786V13.439l-2.433.258v2.534H79.518v2.1h1.836v4.248c0,2.454,1.4,3.672,3.532,3.591a5.457,5.457,0,0,0,2.014-.419l-.677-2.079a2.766,2.766,0,0,1-1.179.306ZM73.211,16.015a4.923,4.923,0,0,0-5.089,5.127,5.118,5.118,0,1,0,10.237,0A4.96,4.96,0,0,0,73.211,16.015Zm.021,8.021a2.66,2.66,0,0,1-2.674-2.893,2.691,2.691,0,0,1,2.674-2.914,2.78,2.78,0,0,1,2.674,2.914A2.676,2.676,0,0,1,73.232,24.035ZM105.059,20c-1.257-.08-1.836-.44-1.836-1.078s.639-.977,1.782-.977a3.315,3.315,0,0,1,2.436.891l1.369-1.61a5.284,5.284,0,0,0-3.832-1.3c-1.8,0-4.159.8-4.159,3.072s2.213,2.914,4.07,3.054c1.4.08,1.955.46,1.955,1.138s-.856,1.1-1.782,1.078a4.887,4.887,0,0,1-3.392-1.378l-1.188,1.738a5.789,5.789,0,0,0,4.548,1.756c2.813,0,4.23-1.485,4.23-3.235C109.268,20.542,106.916,20.123,105.059,20ZM13.507,22.428h3.565V24.9A4.64,4.64,0,0,1,13.92,26.02a4.423,4.423,0,0,1-4.809-4.67c0-2.873,1.815-5.148,4.809-5.148a5.347,5.347,0,0,1,3.565,1.4l1.637-1.678a7.376,7.376,0,0,0-5.187-2.133c-4.937,0-7.4,3.63-7.4,7.56,0,3.672,2.136,7.129,7.385,7.129a6.96,6.96,0,0,0,5.567-2.516V20.075h-5.98Zm15.109-8.52a7.067,7.067,0,0,0-7.245,7.364c0,3.672,2.275,7.2,7.183,7.2s7.129-3.612,7.165-7.225A6.968,6.968,0,0,0,28.616,13.908Zm-.062,12.153c-3.291,0-4.527-2.454-4.59-4.753A4.55,4.55,0,0,1,28.616,16.3c3.211.059,4.548,2.653,4.509,4.988S31.848,26.061,28.554,26.061ZM33.333,0H8.93A8.956,8.956,0,0,0,0,8.93V33.336a8.95,8.95,0,0,0,8.93,8.927h24.4a8.945,8.945,0,0,0,8.93-8.927V8.93A8.95,8.95,0,0,0,33.333,0Zm6.075,33.336a6.09,6.09,0,0,1-6.075,6.069H8.93a6.087,6.087,0,0,1-6.072-6.069V8.93A6.087,6.087,0,0,1,8.93,2.858h24.4A6.09,6.09,0,0,1,39.408,8.93ZM63.672,21.231A2.594,2.594,0,0,1,61.159,24a2.349,2.349,0,0,1-2.376-2.635V16.214H56.35v5.175c0,3.051,1.714,4.827,4.07,4.827a4.366,4.366,0,0,0,3.333-1.485l.16,1.316h2.174V16.214H63.672Zm32.546-3.66a3.606,3.606,0,0,0-3.134-1.6,4.789,4.789,0,0,0-5.127,5.148c0,3.452,2.157,5.249,5.068,5.228a3.77,3.77,0,0,0,3.193-1.735l.119,1.435h2.287V16.214H96.29ZM93.3,24.107a2.816,2.816,0,0,1-2.911-2.994A2.8,2.8,0,0,1,93.3,18.142c3.835.006,3.835,5.974,0,5.974Zm-42.242-.1a2.681,2.681,0,0,1-2.8-2.873A2.763,2.763,0,0,1,51.1,18.219a3,3,0,0,1,1.975.793L54.612,17.4a4.664,4.664,0,0,0-3.565-1.456,4.879,4.879,0,0,0-5.228,5.207,4.881,4.881,0,0,0,5.228,5.207A5.05,5.05,0,0,0,54.838,24.8L53.2,23.2a2.971,2.971,0,0,1-2.139.811Z" transform="translate(0 0)" fill="#ee2a7b"/>
</svg>
