<svg version="1.1" xmlns="http://www.w3.org/2000/svg" xmlns:xlink="https://www.w3.org/1999/xlink" x="0px" y="0px" viewBox="0 0 21.8 28" xml:space="preserve"><path d="M21,12.4h-0.8v-1.6c0-1.8-1.4-3.2-3.2-3.2s-3.2,1.4-3.2,3.2v1.6H13c-0.4,0-0.8,0.4-0.8,0.8v6.5c0,0.4,0.4,0.8,0.8,0.8H21 c0.4,0,0.8-0.4,0.8-0.8v-6.5C21.8,12.7,21.5,12.4,21,12.4z M15.4,10.8c0-0.9,0.7-1.6,1.6-1.6s1.6,0.7,1.6,1.6v1.6h-3.2V10.8z  M20.2,18.8h-6.5V14h6.5V18.8z M15,22c-0.6,0-1,0.4-1,1v2c0,0.6-0.4,1-1,1H3c-0.6,0-1-0.4-1-1V3c0-0.6,0.4-1,1-1h1v0.3 C4,3.8,5.2,5,6.7,5h2.6C10.8,5,12,3.8,12,2.3V2h1c0.6,0,1,0.4,1,1v2c0,0.6,0.4,1,1,1s1-0.4,1-1V3c0-1.7-1.3-3-3-3H3C1.3,0,0,1.3,0,3 v22c0,1.7,1.3,3,3,3h10c1.7,0,3-1.3,3-3v-2C16,22.4,15.6,22,15,22z M6,2h4v0.3C10,2.6,9.6,3,9.3,3H6.7C6.4,3,6,2.6,6,2.3V2z M5,22 c-0.6,0-1,0.4-1,1s0.4,1,1,1h6c0.6,0,1-0.4,1-1s-0.4-1-1-1H5z" fill="#ee2a7b"/></svg>